<?xml version="1.0" encoding="UTF-8" standalone="no"?>
<!DOCTYPE svg PUBLIC "-//W3C//DTD SVG 1.1//EN"
 "http://www.w3.org/Graphics/SVG/1.1/DTD/svg11.dtd">
<!-- Generated by graphviz version 2.40.1 (20161225.0304)
 -->
<!-- Title: %3 Pages: 1 -->
<svg width="254pt" height="110pt"
 viewBox="0.00 0.00 253.66 110.00" xmlns="http://www.w3.org/2000/svg" xmlns:xlink="http://www.w3.org/1999/xlink">
<g id="graph0" class="graph" transform="scale(1 1) rotate(0) translate(4 106)">
<title>%3</title>
<polygon fill="#ffffff" stroke="transparent" points="-4,4 -4,-106 249.6621,-106 249.6621,4 -4,4"/>
<!-- a -->
<g id="node1" class="node">
<title>a</title>
<ellipse fill="none" stroke="#000000" cx="218.6621" cy="-18" rx="27" ry="18"/>
<text text-anchor="middle" x="218.6621" y="-13.8" font-family="Times,serif" font-size="14.00" fill="#000000">a</text>
</g>
<!-- a&#45;&gt;a -->
<g id="edge3" class="edge">
<title>a&#45;&gt;a</title>
<path fill="none" stroke="#000000" d="M227.2314,-35.4099C228.8311,-45.0879 225.9746,-54 218.6621,-54 214.0918,-54 211.2621,-50.5187 210.1731,-45.5449"/>
<polygon fill="#000000" stroke="#000000" points="213.672,-45.3818 210.0928,-35.4099 206.6722,-45.4374 213.672,-45.3818"/>
<text text-anchor="middle" x="218.6621" y="-56.8" font-family="Times,serif" font-size="14.00" fill="#000000">id</text>
</g>
<!-- b -->
<g id="node2" class="node">
<title>b</title>
<ellipse fill="none" stroke="#000000" cx="121.6621" cy="-52" rx="27" ry="18"/>
<text text-anchor="middle" x="121.6621" y="-47.8" font-family="Times,serif" font-size="14.00" fill="#000000">b</text>
</g>
<!-- a&#45;&gt;b -->
<g id="edge1" class="edge">
<title>a&#45;&gt;b</title>
<path fill="none" stroke="#000000" d="M194.6846,-26.4045C182.7926,-30.5728 168.2314,-35.6768 155.2493,-40.2272"/>
<polygon fill="#000000" stroke="#000000" points="153.9793,-36.9635 145.7,-43.5744 156.2948,-43.5694 153.9793,-36.9635"/>
<text text-anchor="middle" x="170.1621" y="-38.8" font-family="Times,serif" font-size="14.00" fill="#000000">g</text>
</g>
<!-- c -->
<g id="node3" class="node">
<title>c</title>
<ellipse fill="none" stroke="#000000" cx="27" cy="-18" rx="27" ry="18"/>
<text text-anchor="middle" x="27" y="-13.8" font-family="Times,serif" font-size="14.00" fill="#000000">c</text>
</g>
<!-- a&#45;&gt;c -->
<g id="edge6" class="edge">
<title>a&#45;&gt;c</title>
<path fill="none" stroke="#000000" d="M191.7842,-14.6795C178.782,-13.2351 162.934,-11.7118 148.6621,-11 124.6919,-9.8045 118.6302,-9.7635 94.6621,-11 84.5958,-11.5193 73.7206,-12.4705 63.6948,-13.5078"/>
<polygon fill="#000000" stroke="#000000" points="63.1857,-10.0424 53.6239,-14.6054 63.9443,-17.0012 63.1857,-10.0424"/>
<text text-anchor="middle" x="121.6621" y="-13.8" font-family="Times,serif" font-size="14.00" fill="#000000">f . g</text>
</g>
<!-- b&#45;&gt;b -->
<g id="edge4" class="edge">
<title>b&#45;&gt;b</title>
<path fill="none" stroke="#000000" d="M129.8744,-69.4099C131.4073,-79.0879 128.6699,-88 121.6621,-88 117.2822,-88 114.5705,-84.5187 113.5268,-79.5449"/>
<polygon fill="#000000" stroke="#000000" points="117.0258,-79.383 113.4498,-69.4099 110.026,-79.4362 117.0258,-79.383"/>
<text text-anchor="middle" x="121.6621" y="-90.8" font-family="Times,serif" font-size="14.00" fill="#000000">id</text>
</g>
<!-- b&#45;&gt;c -->
<g id="edge2" class="edge">
<title>b&#45;&gt;c</title>
<path fill="none" stroke="#000000" d="M97.7749,-43.4204C86.4518,-39.3534 72.7338,-34.4263 60.401,-29.9967"/>
<polygon fill="#000000" stroke="#000000" points="61.4741,-26.6633 50.8796,-26.5769 59.1078,-33.2512 61.4741,-26.6633"/>
<text text-anchor="middle" x="74.3311" y="-37.8" font-family="Times,serif" font-size="14.00" fill="#000000">f</text>
</g>
<!-- c&#45;&gt;c -->
<g id="edge5" class="edge">
<title>c&#45;&gt;c</title>
<path fill="none" stroke="#000000" d="M35.2123,-35.4099C36.7452,-45.0879 34.0078,-54 27,-54 22.6201,-54 19.9084,-50.5187 18.8647,-45.5449"/>
<polygon fill="#000000" stroke="#000000" points="22.3637,-45.383 18.7877,-35.4099 15.3639,-45.4362 22.3637,-45.383"/>
<text text-anchor="middle" x="27" y="-56.8" font-family="Times,serif" font-size="14.00" fill="#000000">id</text>
</g>
</g>
</svg>
