<?xml version="1.0" encoding="UTF-8" standalone="no"?>
<!DOCTYPE svg PUBLIC "-//W3C//DTD SVG 1.1//EN"
 "http://www.w3.org/Graphics/SVG/1.1/DTD/svg11.dtd">
<!-- Generated by graphviz version 2.40.1 (20161225.0304)
 -->
<!-- Title: %3 Pages: 1 -->
<svg width="389pt" height="216pt"
 viewBox="0.00 0.00 388.94 216.00" xmlns="http://www.w3.org/2000/svg" xmlns:xlink="http://www.w3.org/1999/xlink">
<g id="graph0" class="graph" transform="scale(1 1) rotate(0) translate(4 212)">
<title>%3</title>
<polygon fill="#002b36" stroke="transparent" points="-4,4 -4,-212 384.9449,-212 384.9449,4 -4,4"/>
<g id="clust1" class="cluster">
<title>cluster_all</title>
<polygon fill="#002b36" stroke="#eee8d5" points="8,-8 8,-200 140.1216,-200 140.1216,-8 8,-8"/>
<text text-anchor="middle" x="74.0608" y="-184.8" font-family="Times,serif" font-size="14.00" fill="#eee8d5">A ∧ B ∧ C</text>
</g>
<!-- if1 -->
<g id="node1" class="node">
<title>if1</title>
<ellipse fill="none" stroke="#eee8d5" cx="74.0608" cy="-36" rx="58.1216" ry="19.5322"/>
<text text-anchor="middle" x="74.0608" y="-34.6" font-family="Times,serif" font-size="14.00" fill="#eee8d5">必要条件A</text>
</g>
<!-- if2 -->
<g id="node2" class="node">
<title>if2</title>
<ellipse fill="none" stroke="#eee8d5" cx="74.0608" cy="-93" rx="57.5292" ry="19.5322"/>
<text text-anchor="middle" x="74.0608" y="-91.6" font-family="Times,serif" font-size="14.00" fill="#eee8d5">必要条件B</text>
</g>
<!-- if1&#45;&gt;if2 -->
<g id="edge1" class="edge">
<title>if1&#45;&gt;if2</title>
<path fill="none" stroke="#eee8d5" d="M74.0608,-55.5938C74.0608,-61.5359 74.0608,-67.478 74.0608,-73.4202"/>
</g>
<!-- if3 -->
<g id="node3" class="node">
<title>if3</title>
<ellipse fill="none" stroke="#eee8d5" cx="74.0608" cy="-150" rx="57.5292" ry="19.5322"/>
<text text-anchor="middle" x="74.0608" y="-148.6" font-family="Times,serif" font-size="14.00" fill="#eee8d5">必要条件C</text>
</g>
<!-- if2&#45;&gt;if3 -->
<g id="edge2" class="edge">
<title>if2&#45;&gt;if3</title>
<path fill="none" stroke="#eee8d5" d="M74.0608,-112.5938C74.0608,-118.5359 74.0608,-124.478 74.0608,-130.4202"/>
</g>
<!-- must -->
<g id="node4" class="node">
<title>must</title>
<ellipse fill="none" stroke="#eee8d5" cx="330.0333" cy="-93" rx="50.8235" ry="19.5322"/>
<text text-anchor="middle" x="330.0333" y="-91.6" font-family="Times,serif" font-size="14.00" fill="#eee8d5">充分条件</text>
</g>
<!-- if2&#45;&gt;must -->
<g id="edge3" class="edge">
<title>if2&#45;&gt;must</title>
<path fill="none" stroke="#ff0000" d="M140.1183,-93C179.8793,-93 230.1469,-93 268.977,-93"/>
<polygon fill="#ff0000" stroke="#ff0000" points="278.9805,-93 268.9805,-97.5001 273.9805,-93 268.9805,-93.0001 268.9805,-93.0001 268.9805,-93.0001 273.9805,-93 268.9804,-88.5001 278.9805,-93 278.9805,-93"/>
</g>
</g>
</svg>
