<?xml version="1.0" encoding="UTF-8" standalone="no"?>
<!DOCTYPE svg PUBLIC "-//W3C//DTD SVG 1.1//EN"
 "http://www.w3.org/Graphics/SVG/1.1/DTD/svg11.dtd">
<!-- Generated by graphviz version 2.40.1 (20161225.0304)
 -->
<!-- Title: %3 Pages: 1 -->
<svg width="411pt" height="314pt"
 viewBox="0.00 0.00 411.23 314.00" xmlns="http://www.w3.org/2000/svg" xmlns:xlink="http://www.w3.org/1999/xlink">
<g id="graph0" class="graph" transform="scale(1 1) rotate(0) translate(4 310)">
<title>%3</title>
<polygon fill="#002b36" stroke="transparent" points="-4,4 -4,-310 407.2275,-310 407.2275,4 -4,4"/>
<g id="clust1" class="cluster">
<title>cluster_all</title>
<polygon fill="#002b36" stroke="#eee8d5" points="37,-8 37,-298 328.3379,-298 328.3379,-8 37,-8"/>
<text text-anchor="middle" x="182.6689" y="-282.8" font-family="Times,serif" font-size="14.00" fill="#eee8d5">Shrinking</text>
</g>
<!-- origin -->
<g id="node1" class="node">
<title>origin</title>
<polygon fill="none" stroke="#eee8d5" points="0,-72 0,-252 20,-252 20,-72 0,-72"/>
<text text-anchor="middle" x="10" y="-237.8" font-family="Times,serif" font-size="14.00" fill="#eee8d5">12</text>
<polyline fill="none" stroke="#eee8d5" points="0,-232 20,-232 "/>
<text text-anchor="middle" x="10" y="-217.8" font-family="Times,serif" font-size="14.00" fill="#eee8d5">23</text>
<polyline fill="none" stroke="#eee8d5" points="0,-212 20,-212 "/>
<text text-anchor="middle" x="10" y="-197.8" font-family="Times,serif" font-size="14.00" fill="#eee8d5">37</text>
<polyline fill="none" stroke="#eee8d5" points="0,-192 20,-192 "/>
<text text-anchor="middle" x="10" y="-177.8" font-family="Times,serif" font-size="14.00" fill="#eee8d5">11</text>
<polyline fill="none" stroke="#eee8d5" points="0,-172 20,-172 "/>
<text text-anchor="middle" x="10" y="-157.8" font-family="Times,serif" font-size="14.00" fill="#eee8d5">51</text>
<polyline fill="none" stroke="#eee8d5" points="0,-152 20,-152 "/>
<text text-anchor="middle" x="10" y="-137.8" font-family="Times,serif" font-size="14.00" fill="#eee8d5">7</text>
<polyline fill="none" stroke="#eee8d5" points="0,-132 20,-132 "/>
<text text-anchor="middle" x="10" y="-117.8" font-family="Times,serif" font-size="14.00" fill="#eee8d5">15</text>
<polyline fill="none" stroke="#eee8d5" points="0,-112 20,-112 "/>
<text text-anchor="middle" x="10" y="-97.8" font-family="Times,serif" font-size="14.00" fill="#eee8d5">10</text>
<polyline fill="none" stroke="#eee8d5" points="0,-92 20,-92 "/>
<text text-anchor="middle" x="10" y="-77.8" font-family="Times,serif" font-size="14.00" fill="#eee8d5">2</text>
</g>
<!-- fail_origin -->
<g id="node2" class="node">
<title>fail_origin</title>
<polygon fill="none" stroke="#eee8d5" points="62,-232 62,-252 82,-252 82,-232 62,-232"/>
<text text-anchor="start" x="70.25" y="-237.8" font-family="Times,serif" font-size="14.00" fill="#eee8d5"> </text>
<polygon fill="none" stroke="#eee8d5" points="62,-212 62,-232 82,-232 82,-212 62,-212"/>
<text text-anchor="start" x="70.25" y="-217.8" font-family="Times,serif" font-size="14.00" fill="#eee8d5"> </text>
<polygon fill="#ff0000" stroke="transparent" points="62,-192 62,-212 82,-212 82,-192 62,-192"/>
<polygon fill="none" stroke="#eee8d5" points="62,-192 62,-212 82,-212 82,-192 62,-192"/>
<text text-anchor="start" x="65" y="-197.8" font-family="Times,serif" font-size="14.00" fill="#eee8d5">37</text>
<polygon fill="none" stroke="#eee8d5" points="62,-172 62,-192 82,-192 82,-172 62,-172"/>
<text text-anchor="start" x="70.25" y="-177.8" font-family="Times,serif" font-size="14.00" fill="#eee8d5"> </text>
<polygon fill="none" stroke="#eee8d5" points="62,-152 62,-172 82,-172 82,-152 62,-152"/>
<text text-anchor="start" x="70.25" y="-157.8" font-family="Times,serif" font-size="14.00" fill="#eee8d5"> </text>
<polygon fill="#ff0000" stroke="transparent" points="62,-132 62,-152 82,-152 82,-132 62,-132"/>
<polygon fill="none" stroke="#eee8d5" points="62,-132 62,-152 82,-152 82,-132 62,-132"/>
<text text-anchor="start" x="68.5" y="-137.8" font-family="Times,serif" font-size="14.00" fill="#eee8d5">7</text>
<polygon fill="none" stroke="#eee8d5" points="62,-112 62,-132 82,-132 82,-112 62,-112"/>
<text text-anchor="start" x="70.25" y="-117.8" font-family="Times,serif" font-size="14.00" fill="#eee8d5"> </text>
<polygon fill="#ff0000" stroke="transparent" points="62,-92 62,-112 82,-112 82,-92 62,-92"/>
<polygon fill="none" stroke="#eee8d5" points="62,-92 62,-112 82,-112 82,-92 62,-92"/>
<text text-anchor="start" x="65" y="-97.8" font-family="Times,serif" font-size="14.00" fill="#eee8d5">10</text>
<polygon fill="none" stroke="#eee8d5" points="62,-72 62,-92 82,-92 82,-72 62,-72"/>
<text text-anchor="start" x="70.25" y="-77.8" font-family="Times,serif" font-size="14.00" fill="#eee8d5"> </text>
</g>
<!-- origin&#45;&gt;fail_origin -->
<g id="edge1" class="edge">
<title>origin&#45;&gt;fail_origin:here</title>
<path fill="none" stroke="#eee8d5" d="M20.3594,-162C28.4764,-162 40.3063,-162 51.9332,-162"/>
<polygon fill="#eee8d5" stroke="#eee8d5" points="62,-162 52,-166.5001 57,-162 52,-162.0001 52,-162.0001 52,-162.0001 57,-162 52,-157.5001 62,-162 62,-162"/>
</g>
<!-- fail_stream0 -->
<g id="node3" class="node">
<title>fail_stream0</title>
<polygon fill="#ff0000" stroke="transparent" points="151,-242 151,-262 171,-262 171,-242 151,-242"/>
<polygon fill="none" stroke="#eee8d5" points="151,-242 151,-262 171,-262 171,-242 151,-242"/>
<text text-anchor="start" x="154" y="-247.8" font-family="Times,serif" font-size="14.00" fill="#eee8d5">37</text>
<polygon fill="#ff0000" stroke="transparent" points="151,-222 151,-242 171,-242 171,-222 151,-222"/>
<polygon fill="none" stroke="#eee8d5" points="151,-222 151,-242 171,-242 171,-222 151,-222"/>
<text text-anchor="start" x="154" y="-227.8" font-family="Times,serif" font-size="14.00" fill="#eee8d5">31</text>
<polygon fill="#ff0000" stroke="transparent" points="151,-202 151,-222 171,-222 171,-202 151,-202"/>
<polygon fill="none" stroke="#eee8d5" points="151,-202 151,-222 171,-222 171,-202 151,-202"/>
<text text-anchor="start" x="154" y="-207.8" font-family="Times,serif" font-size="14.00" fill="#eee8d5">19</text>
</g>
<!-- fail_origin&#45;&gt;fail_stream0 -->
<g id="edge2" class="edge">
<title>fail_origin:f0&#45;&gt;fail_stream0:f0</title>
<path fill="none" stroke="#eee8d5" d="M82,-202C99.6998,-202 92.9082,-222.29 107,-233 120.9115,-243.573 127.274,-249.585 140.8694,-251.4042"/>
<polygon fill="#eee8d5" stroke="#eee8d5" points="151,-252 140.753,-255.905 146.0086,-251.7064 141.0172,-251.4128 141.0172,-251.4128 141.0172,-251.4128 146.0086,-251.7064 141.2815,-246.9206 151,-252 151,-252"/>
</g>
<!-- fail_origin&#45;&gt;fail_stream0 -->
<g id="edge3" class="edge">
<title>fail_origin:f0&#45;&gt;fail_stream0:f1</title>
<path fill="none" stroke="#eee8d5" d="M82,-202C111.6517,-202 116.6779,-225.5881 140.7504,-230.9323"/>
<polygon fill="#eee8d5" stroke="#eee8d5" points="151,-232 140.5875,-235.4396 146.0269,-231.4819 141.0538,-230.9638 141.0538,-230.9638 141.0538,-230.9638 146.0269,-231.4819 141.5201,-226.488 151,-232 151,-232"/>
</g>
<!-- fail_origin&#45;&gt;fail_stream0 -->
<g id="edge4" class="edge">
<title>fail_origin:f0&#45;&gt;fail_stream0:f2</title>
<path fill="none" stroke="#eee8d5" d="M82,-202C109.2347,-202 117.96,-209.7248 140.712,-211.5956"/>
<polygon fill="#eee8d5" stroke="#eee8d5" points="151,-212 140.8309,-216.1037 146.0039,-211.8036 141.0077,-211.6071 141.0077,-211.6071 141.0077,-211.6071 146.0039,-211.8036 141.1845,-207.1106 151,-212 151,-212"/>
</g>
<!-- fail_stream1 -->
<g id="node4" class="node">
<title>fail_stream1</title>
<polygon fill="#ff0000" stroke="transparent" points="151,-152 151,-172 171,-172 171,-152 151,-152"/>
<polygon fill="none" stroke="#eee8d5" points="151,-152 151,-172 171,-172 171,-152 151,-152"/>
<text text-anchor="start" x="157.5" y="-157.8" font-family="Times,serif" font-size="14.00" fill="#eee8d5">7</text>
<polygon fill="none" stroke="#eee8d5" points="151,-132 151,-152 171,-152 171,-132 151,-132"/>
<text text-anchor="start" x="157.5" y="-137.8" font-family="Times,serif" font-size="14.00" fill="#eee8d5">4</text>
<polygon fill="#ff0000" stroke="transparent" points="151,-112 151,-132 171,-132 171,-112 151,-112"/>
<polygon fill="none" stroke="#eee8d5" points="151,-112 151,-132 171,-132 171,-112 151,-112"/>
<text text-anchor="start" x="157.5" y="-117.8" font-family="Times,serif" font-size="14.00" fill="#eee8d5">1</text>
</g>
<!-- fail_origin&#45;&gt;fail_stream1 -->
<g id="edge5" class="edge">
<title>fail_origin:f1&#45;&gt;fail_stream1:f0</title>
<path fill="none" stroke="#eee8d5" d="M82,-142C110.1873,-142 117.498,-157.5872 140.7923,-161.2404"/>
<polygon fill="#eee8d5" stroke="#eee8d5" points="151,-162 140.6936,-165.7454 146.0138,-161.6289 141.0276,-161.2578 141.0276,-161.2578 141.0276,-161.2578 146.0138,-161.6289 141.3616,-156.7702 151,-162 151,-162"/>
</g>
<!-- fail_origin&#45;&gt;fail_stream1 -->
<g id="edge6" class="edge">
<title>fail_origin:f1&#45;&gt;fail_stream1:f1</title>
<path fill="none" stroke="#eee8d5" d="M82,-142C108.9531,-142 118.1393,-142 140.7895,-142"/>
<polygon fill="#eee8d5" stroke="#eee8d5" points="151,-142 141,-146.5001 146,-142 141,-142.0001 141,-142.0001 141,-142.0001 146,-142 141,-137.5001 151,-142 151,-142"/>
</g>
<!-- fail_origin&#45;&gt;fail_stream1 -->
<g id="edge7" class="edge">
<title>fail_origin:f1&#45;&gt;fail_stream1:f2</title>
<path fill="none" stroke="#eee8d5" d="M82,-142C110.1873,-142 117.498,-126.4128 140.7923,-122.7596"/>
<polygon fill="#eee8d5" stroke="#eee8d5" points="151,-122 141.3616,-127.2298 146.0138,-122.3711 141.0276,-122.7422 141.0276,-122.7422 141.0276,-122.7422 146.0138,-122.3711 140.6936,-118.2546 151,-122 151,-122"/>
</g>
<!-- fail_stream2 -->
<g id="node5" class="node">
<title>fail_stream2</title>
<polygon fill="#ff0000" stroke="transparent" points="151,-62 151,-82 171,-82 171,-62 151,-62"/>
<polygon fill="none" stroke="#eee8d5" points="151,-62 151,-82 171,-82 171,-62 151,-62"/>
<text text-anchor="start" x="154" y="-67.8" font-family="Times,serif" font-size="14.00" fill="#eee8d5">10</text>
<polygon fill="none" stroke="#eee8d5" points="151,-42 151,-62 171,-62 171,-42 151,-42"/>
<text text-anchor="start" x="157.5" y="-47.8" font-family="Times,serif" font-size="14.00" fill="#eee8d5">3</text>
<polygon fill="none" stroke="#eee8d5" points="151,-22 151,-42 171,-42 171,-22 151,-22"/>
<text text-anchor="start" x="157.5" y="-27.8" font-family="Times,serif" font-size="14.00" fill="#eee8d5">0</text>
</g>
<!-- fail_origin&#45;&gt;fail_stream2 -->
<g id="edge8" class="edge">
<title>fail_origin:f2&#45;&gt;fail_stream2:f0</title>
<path fill="none" stroke="#eee8d5" d="M82,-102C111.6517,-102 116.6779,-78.4119 140.7504,-73.0677"/>
<polygon fill="#eee8d5" stroke="#eee8d5" points="151,-72 141.5201,-77.512 146.0269,-72.5181 141.0538,-73.0362 141.0538,-73.0362 141.0538,-73.0362 146.0269,-72.5181 140.5875,-68.5604 151,-72 151,-72"/>
</g>
<!-- fail_origin&#45;&gt;fail_stream2 -->
<g id="edge9" class="edge">
<title>fail_origin:f2&#45;&gt;fail_stream2:f1</title>
<path fill="none" stroke="#eee8d5" d="M82,-102C97.9772,-102 122.6342,-66.4043 141.3238,-55.2806"/>
<polygon fill="#eee8d5" stroke="#eee8d5" points="151,-52 142.9744,-59.4727 146.2648,-53.6055 141.5295,-55.211 141.5295,-55.211 141.5295,-55.211 146.2648,-53.6055 140.0846,-50.9492 151,-52 151,-52"/>
</g>
<!-- fail_origin&#45;&gt;fail_stream2 -->
<g id="edge10" class="edge">
<title>fail_origin:f2&#45;&gt;fail_stream2:f2</title>
<path fill="none" stroke="#eee8d5" d="M82,-102C100.7707,-102 122.1064,-50.3032 141.5985,-35.7635"/>
<polygon fill="#eee8d5" stroke="#eee8d5" points="151,-32 143.3886,-39.8942 146.3581,-33.8582 141.7162,-35.7165 141.7162,-35.7165 141.7162,-35.7165 146.3581,-33.8582 140.0438,-31.5388 151,-32 151,-32"/>
</g>
<!-- fail_all -->
<g id="node6" class="node">
<title>fail_all</title>
<polygon fill="#ff0000" stroke="#eee8d5" points="223,-129 223,-251 243,-251 243,-129 223,-129"/>
<text text-anchor="middle" x="233" y="-236.3" font-family="Times,serif" font-size="14.00" fill="#eee8d5">37</text>
<polyline fill="none" stroke="#eee8d5" points="223,-230 243,-230 "/>
<text text-anchor="middle" x="233" y="-215.8" font-family="Times,serif" font-size="14.00" fill="#eee8d5">31</text>
<polyline fill="none" stroke="#eee8d5" points="223,-210 243,-210 "/>
<text text-anchor="middle" x="233" y="-195.8" font-family="Times,serif" font-size="14.00" fill="#eee8d5">19</text>
<polyline fill="none" stroke="#eee8d5" points="223,-190 243,-190 "/>
<text text-anchor="middle" x="233" y="-175.3" font-family="Times,serif" font-size="14.00" fill="#eee8d5">7</text>
<polyline fill="none" stroke="#eee8d5" points="223,-169 243,-169 "/>
<text text-anchor="middle" x="233" y="-154.8" font-family="Times,serif" font-size="14.00" fill="#eee8d5">1</text>
<polyline fill="none" stroke="#eee8d5" points="223,-149 243,-149 "/>
<text text-anchor="middle" x="233" y="-134.8" font-family="Times,serif" font-size="14.00" fill="#eee8d5">10</text>
</g>
<!-- fail_stream0&#45;&gt;fail_all -->
<g id="edge11" class="edge">
<title>fail_stream0:f0&#45;&gt;fail_all:f0</title>
<path fill="none" stroke="#eee8d5" d="M171,-252C190.747,-252 197.3094,-244.3133 212.7302,-241.7911"/>
<polygon fill="#eee8d5" stroke="#eee8d5" points="223,-241 213.3752,-246.2548 218.0148,-241.3841 213.0295,-241.7681 213.0295,-241.7681 213.0295,-241.7681 218.0148,-241.3841 212.6839,-237.2814 223,-241 223,-241"/>
</g>
<!-- fail_stream0&#45;&gt;fail_all -->
<g id="edge12" class="edge">
<title>fail_stream0:f1&#45;&gt;fail_all:f1</title>
<path fill="none" stroke="#eee8d5" d="M171,-232C190.8272,-232 197.2687,-223.6145 212.7037,-220.863"/>
<polygon fill="#eee8d5" stroke="#eee8d5" points="223,-220 213.4108,-225.3196 218.0175,-220.4177 213.0349,-220.8353 213.0349,-220.8353 213.0349,-220.8353 218.0175,-220.4177 212.659,-216.3511 223,-220 223,-220"/>
</g>
<!-- fail_stream0&#45;&gt;fail_all -->
<g id="edge13" class="edge">
<title>fail_stream0:f2&#45;&gt;fail_all:f2</title>
<path fill="none" stroke="#eee8d5" d="M171,-212C190.8272,-212 197.2687,-203.6145 212.7037,-200.863"/>
<polygon fill="#eee8d5" stroke="#eee8d5" points="223,-200 213.4108,-205.3196 218.0175,-200.4177 213.0349,-200.8353 213.0349,-200.8353 213.0349,-200.8353 218.0175,-200.4177 212.659,-196.3511 223,-200 223,-200"/>
</g>
<!-- fail_stream1&#45;&gt;fail_all -->
<g id="edge14" class="edge">
<title>fail_stream1:f0&#45;&gt;fail_all:f3</title>
<path fill="none" stroke="#eee8d5" d="M171,-162C191.5156,-162 197.1206,-174.1025 212.9767,-177.8846"/>
<polygon fill="#eee8d5" stroke="#eee8d5" points="223,-179 212.5636,-182.3663 218.0307,-178.447 213.0613,-177.8939 213.0613,-177.8939 213.0613,-177.8939 218.0307,-178.447 213.5591,-173.4215 223,-179 223,-179"/>
</g>
<!-- fail_stream1&#45;&gt;fail_all -->
<g id="edge15" class="edge">
<title>fail_stream1:f2&#45;&gt;fail_all:f4</title>
<path fill="none" stroke="#eee8d5" d="M171,-122C195.3757,-122 195.3111,-149.3254 212.813,-157.0107"/>
<polygon fill="#eee8d5" stroke="#eee8d5" points="223,-159 212.3229,-161.4999 218.0927,-158.0417 213.1854,-157.0834 213.1854,-157.0834 213.1854,-157.0834 218.0927,-158.0417 214.0479,-152.6668 223,-159 223,-159"/>
</g>
<!-- fail_stream2&#45;&gt;fail_all -->
<g id="edge16" class="edge">
<title>fail_stream2:f0&#45;&gt;fail_all:f5</title>
<path fill="none" stroke="#eee8d5" d="M171,-72C204.9219,-72 228.2803,-88.0717 232.3618,-118.9449"/>
<polygon fill="#eee8d5" stroke="#eee8d5" points="233,-129 227.8755,-119.3051 232.6833,-124.01 232.3665,-119.0201 232.3665,-119.0201 232.3665,-119.0201 232.6833,-124.01 236.8575,-118.735 233,-129 233,-129"/>
</g>
<!-- sorted_fail_all -->
<g id="node7" class="node">
<title>sorted_fail_all</title>
<polygon fill="none" stroke="#eee8d5" points="300.3379,-129 300.3379,-251 320.3379,-251 320.3379,-129 300.3379,-129"/>
<text text-anchor="middle" x="310.3379" y="-236.3" font-family="Times,serif" font-size="14.00" fill="#eee8d5">1</text>
<polyline fill="none" stroke="#eee8d5" points="300.3379,-230 320.3379,-230 "/>
<text text-anchor="middle" x="310.3379" y="-215.8" font-family="Times,serif" font-size="14.00" fill="#eee8d5">7</text>
<polyline fill="none" stroke="#eee8d5" points="300.3379,-210 320.3379,-210 "/>
<text text-anchor="middle" x="310.3379" y="-195.8" font-family="Times,serif" font-size="14.00" fill="#eee8d5">10</text>
<polyline fill="none" stroke="#eee8d5" points="300.3379,-190 320.3379,-190 "/>
<text text-anchor="middle" x="310.3379" y="-175.3" font-family="Times,serif" font-size="14.00" fill="#eee8d5">19</text>
<polyline fill="none" stroke="#eee8d5" points="300.3379,-169 320.3379,-169 "/>
<text text-anchor="middle" x="310.3379" y="-154.8" font-family="Times,serif" font-size="14.00" fill="#eee8d5">31</text>
<polyline fill="none" stroke="#eee8d5" points="300.3379,-149 320.3379,-149 "/>
<text text-anchor="middle" x="310.3379" y="-134.8" font-family="Times,serif" font-size="14.00" fill="#eee8d5">37</text>
</g>
<!-- fail_all&#45;&gt;sorted_fail_all -->
<g id="edge17" class="edge">
<title>fail_all&#45;&gt;sorted_fail_all</title>
<path fill="none" stroke="#eee8d5" d="M243.1106,-190C254.8564,-190 274.5451,-190 289.5883,-190"/>
<polygon fill="#eee8d5" stroke="#eee8d5" points="299.978,-190 289.978,-194.5001 294.978,-190 289.978,-190.0001 289.978,-190.0001 289.978,-190.0001 294.978,-190 289.9779,-185.5001 299.978,-190 299.978,-190"/>
<text text-anchor="middle" x="271.6689" y="-192.8" font-family="Times,serif" font-size="14.00" fill="#eee8d5">Sort</text>
</g>
<!-- last -->
<g id="node8" class="node">
<title>last</title>
<polygon fill="none" stroke="#eee8d5" points="383.2275,-231 383.2275,-251 403.2275,-251 403.2275,-231 383.2275,-231"/>
<text text-anchor="middle" x="393.2275" y="-236.8" font-family="Times,serif" font-size="14.00" fill="#eee8d5">1</text>
</g>
<!-- sorted_fail_all&#45;&gt;last -->
<g id="edge18" class="edge">
<title>sorted_fail_all:f0&#45;&gt;last</title>
<path fill="none" stroke="#eee8d5" d="M320.3379,-241C337.9118,-241 357.869,-241 372.452,-241"/>
<polygon fill="#eee8d5" stroke="#eee8d5" points="382.8469,-241 372.847,-245.5001 377.8469,-241 372.8469,-241.0001 372.8469,-241.0001 372.8469,-241.0001 377.8469,-241 372.8469,-236.5001 382.8469,-241 382.8469,-241"/>
<text text-anchor="middle" x="355.7827" y="-243.8" font-family="Times,serif" font-size="14.00" fill="#eee8d5">Output</text>
</g>
</g>
</svg>
