<?xml version="1.0" encoding="UTF-8" standalone="no"?>
<!DOCTYPE svg PUBLIC "-//W3C//DTD SVG 1.1//EN"
 "http://www.w3.org/Graphics/SVG/1.1/DTD/svg11.dtd">
<!-- Generated by graphviz version 2.40.1 (20161225.0304)
 -->
<!-- Title: %3 Pages: 1 -->
<svg width="342pt" height="219pt"
 viewBox="0.00 0.00 342.00 219.26" xmlns="http://www.w3.org/2000/svg" xmlns:xlink="http://www.w3.org/1999/xlink">
<g id="graph0" class="graph" transform="scale(1 1) rotate(0) translate(4 215.2642)">
<title>%3</title>
<polygon fill="#002b36" stroke="transparent" points="-4,4 -4,-215.2642 338,-215.2642 338,4 -4,4"/>
<text text-anchor="middle" x="167" y="-6.8" font-family="Times,serif" font-size="14.00" fill="#eee8d5">State Machine</text>
<g id="clust1" class="cluster">
<title>cluster_action</title>
<polygon fill="#002b36" stroke="#eee8d5" points="8,-120.6321 8,-203.2642 326,-203.2642 326,-120.6321 8,-120.6321"/>
<text text-anchor="middle" x="167" y="-188.0642" font-family="Times,serif" font-size="14.00" fill="#eee8d5">调用序列</text>
</g>
<g id="clust3" class="cluster">
<title>cluster_state</title>
<polygon fill="#002b36" stroke="#eee8d5" points="8,-30 8,-112.6321 326,-112.6321 326,-30 8,-30"/>
<text text-anchor="middle" x="167" y="-97.4321" font-family="Times,serif" font-size="14.00" fill="#eee8d5">状态序列</text>
</g>
<!-- action1 -->
<g id="node1" class="node">
<title>action1</title>
<ellipse fill="#338833" stroke="#eee8d5" cx="47" cy="-148.1482" rx="31.2258" ry="19.5322"/>
<text text-anchor="middle" x="47" y="-146.7481" font-family="Times,serif" font-size="14.00" fill="#eee8d5">执行</text>
</g>
<!-- action2 -->
<g id="node2" class="node">
<title>action2</title>
<ellipse fill="#338833" stroke="#eee8d5" cx="127" cy="-148.1482" rx="31.2258" ry="19.5322"/>
<text text-anchor="middle" x="127" y="-146.7481" font-family="Times,serif" font-size="14.00" fill="#eee8d5">执行</text>
</g>
<!-- action1&#45;&gt;action2 -->
<g id="edge1" class="edge">
<title>action1&#45;&gt;action2</title>
<path fill="none" stroke="#eee8d5" stroke-width="2" d="M78.25,-148.1482C80.7137,-148.1482 83.1774,-148.1482 85.6411,-148.1482"/>
<polygon fill="#eee8d5" stroke="#eee8d5" stroke-width="2" points="85.7696,-151.6483 95.7695,-148.1482 85.7695,-144.6483 85.7696,-151.6483"/>
</g>
<!-- state1 -->
<g id="node5" class="node">
<title>state1</title>
<ellipse fill="#338833" stroke="#eee8d5" cx="47" cy="-57.5161" rx="31.2258" ry="19.5322"/>
<text text-anchor="middle" x="47" y="-56.116" font-family="Times,serif" font-size="14.00" fill="#eee8d5">状态</text>
</g>
<!-- action1&#45;&gt;state1 -->
<g id="edge7" class="edge">
<title>action1&#45;&gt;state1</title>
<path fill="none" stroke="#eee8d5" stroke-width="2" d="M47,-128.4824C47,-116.487 47,-100.9163 47,-87.4174"/>
<polygon fill="#eee8d5" stroke="#eee8d5" stroke-width="2" points="50.5001,-87.1435 47,-77.1435 43.5001,-87.1436 50.5001,-87.1435"/>
</g>
<!-- action3 -->
<g id="node3" class="node">
<title>action3</title>
<ellipse fill="#338833" stroke="#eee8d5" cx="207" cy="-148.1482" rx="31.2258" ry="19.5322"/>
<text text-anchor="middle" x="207" y="-146.7481" font-family="Times,serif" font-size="14.00" fill="#eee8d5">执行</text>
</g>
<!-- action2&#45;&gt;action3 -->
<g id="edge2" class="edge">
<title>action2&#45;&gt;action3</title>
<path fill="none" stroke="#eee8d5" stroke-width="2" d="M158.25,-148.1482C160.7137,-148.1482 163.1774,-148.1482 165.6411,-148.1482"/>
<polygon fill="#eee8d5" stroke="#eee8d5" stroke-width="2" points="165.7696,-151.6483 175.7695,-148.1482 165.7695,-144.6483 165.7696,-151.6483"/>
</g>
<!-- state2 -->
<g id="node6" class="node">
<title>state2</title>
<ellipse fill="#338833" stroke="#eee8d5" cx="127" cy="-57.5161" rx="31.2258" ry="19.5322"/>
<text text-anchor="middle" x="127" y="-56.116" font-family="Times,serif" font-size="14.00" fill="#eee8d5">状态</text>
</g>
<!-- action2&#45;&gt;state2 -->
<g id="edge8" class="edge">
<title>action2&#45;&gt;state2</title>
<path fill="none" stroke="#eee8d5" stroke-width="2" d="M127,-128.4824C127,-116.487 127,-100.9163 127,-87.4174"/>
<polygon fill="#eee8d5" stroke="#eee8d5" stroke-width="2" points="130.5001,-87.1435 127,-77.1435 123.5001,-87.1436 130.5001,-87.1435"/>
</g>
<!-- action4 -->
<g id="node4" class="node">
<title>action4</title>
<ellipse fill="#338833" stroke="#eee8d5" cx="287" cy="-148.1482" rx="31.2258" ry="19.5322"/>
<text text-anchor="middle" x="287" y="-146.7481" font-family="Times,serif" font-size="14.00" fill="#eee8d5">执行</text>
</g>
<!-- action3&#45;&gt;action4 -->
<g id="edge3" class="edge">
<title>action3&#45;&gt;action4</title>
<path fill="none" stroke="#eee8d5" stroke-width="2" d="M238.25,-148.1482C240.7137,-148.1482 243.1774,-148.1482 245.6411,-148.1482"/>
<polygon fill="#eee8d5" stroke="#eee8d5" stroke-width="2" points="245.7696,-151.6483 255.7695,-148.1482 245.7695,-144.6483 245.7696,-151.6483"/>
</g>
<!-- state3 -->
<g id="node7" class="node">
<title>state3</title>
<ellipse fill="#338833" stroke="#eee8d5" cx="207" cy="-57.5161" rx="31.2258" ry="19.5322"/>
<text text-anchor="middle" x="207" y="-56.116" font-family="Times,serif" font-size="14.00" fill="#eee8d5">状态</text>
</g>
<!-- action3&#45;&gt;state3 -->
<g id="edge9" class="edge">
<title>action3&#45;&gt;state3</title>
<path fill="none" stroke="#eee8d5" stroke-width="2" d="M207,-128.4824C207,-116.487 207,-100.9163 207,-87.4174"/>
<polygon fill="#eee8d5" stroke="#eee8d5" stroke-width="2" points="210.5001,-87.1435 207,-77.1435 203.5001,-87.1436 210.5001,-87.1435"/>
</g>
<!-- state4 -->
<g id="node8" class="node">
<title>state4</title>
<ellipse fill="#338833" stroke="#eee8d5" cx="287" cy="-57.5161" rx="31.2258" ry="19.5322"/>
<text text-anchor="middle" x="287" y="-56.116" font-family="Times,serif" font-size="14.00" fill="#eee8d5">状态</text>
</g>
<!-- action4&#45;&gt;state4 -->
<g id="edge10" class="edge">
<title>action4&#45;&gt;state4</title>
<path fill="none" stroke="#eee8d5" stroke-width="2" d="M287,-128.4824C287,-116.487 287,-100.9163 287,-87.4174"/>
<polygon fill="#eee8d5" stroke="#eee8d5" stroke-width="2" points="290.5001,-87.1435 287,-77.1435 283.5001,-87.1436 290.5001,-87.1435"/>
</g>
<!-- state1&#45;&gt;state2 -->
<g id="edge4" class="edge">
<title>state1&#45;&gt;state2</title>
<path fill="none" stroke="#eee8d5" stroke-width="2" d="M78.25,-57.5161C80.7137,-57.5161 83.1774,-57.5161 85.6411,-57.5161"/>
<polygon fill="#eee8d5" stroke="#eee8d5" stroke-width="2" points="85.7696,-61.0162 95.7695,-57.5161 85.7695,-54.0162 85.7696,-61.0162"/>
</g>
<!-- state2&#45;&gt;state3 -->
<g id="edge5" class="edge">
<title>state2&#45;&gt;state3</title>
<path fill="none" stroke="#eee8d5" stroke-width="2" d="M158.25,-57.5161C160.7137,-57.5161 163.1774,-57.5161 165.6411,-57.5161"/>
<polygon fill="#eee8d5" stroke="#eee8d5" stroke-width="2" points="165.7696,-61.0162 175.7695,-57.5161 165.7695,-54.0162 165.7696,-61.0162"/>
</g>
<!-- state3&#45;&gt;state4 -->
<g id="edge6" class="edge">
<title>state3&#45;&gt;state4</title>
<path fill="none" stroke="#eee8d5" stroke-width="2" d="M238.25,-57.5161C240.7137,-57.5161 243.1774,-57.5161 245.6411,-57.5161"/>
<polygon fill="#eee8d5" stroke="#eee8d5" stroke-width="2" points="245.7696,-61.0162 255.7695,-57.5161 245.7695,-54.0162 245.7696,-61.0162"/>
</g>
</g>
</svg>
