<svg xmlns="http://www.w3.org/2000/svg" xml:space="preserve" xmlns:xlink="http://www.w3.org/1999/xlink" style="max-width: 100%;height: auto;" width="984" height="984" 
viewBox="30 30 1014 1014">
<g fill="#000000">
<g transform="translate(311.66666666667,135.66666666667) scale(3.7766666666667)"><rect width="6" height="6"></rect></g>
<g transform="translate(377.66666666667,135.66666666667) scale(3.7766666666667)"><rect width="6" height="6"></rect></g>
<g transform="translate(421.66666666667,135.66666666667) scale(3.7766666666667)"><rect width="6" height="6"></rect></g>
<g transform="translate(465.66666666667,135.66666666667) scale(3.7766666666667)"><rect width="6" height="6"></rect></g>
<g transform="translate(509.66666666667,135.66666666667) scale(3.7766666666667)"><rect width="6" height="6"></rect></g>
<g transform="translate(553.66666666667,135.66666666667) scale(3.7766666666667)"><rect width="6" height="6"></rect></g>
<g transform="translate(619.66666666667,135.66666666667) scale(3.7766666666667)"><rect width="6" height="6"></rect></g>
<g transform="translate(641.66666666667,135.66666666667) scale(3.7766666666667)"><rect width="6" height="6"></rect></g>
<g transform="translate(663.66666666667,135.66666666667) scale(3.7766666666667)"><rect width="6" height="6"></rect></g>
<g transform="translate(707.66666666667,135.66666666667) scale(3.7766666666667)"><rect width="6" height="6"></rect></g>
<g transform="translate(751.66666666667,135.66666666667) scale(3.7766666666667)"><rect width="6" height="6"></rect></g>
<g transform="translate(311.66666666667,157.66666666667) scale(3.7766666666667)"><rect width="6" height="6"></rect></g>
<g transform="translate(377.66666666667,157.66666666667) scale(3.7766666666667)"><rect width="6" height="6"></rect></g>
<g transform="translate(421.66666666667,157.66666666667) scale(3.7766666666667)"><rect width="6" height="6"></rect></g>
<g transform="translate(487.66666666667,157.66666666667) scale(3.7766666666667)"><rect width="6" height="6"></rect></g>
<g transform="translate(531.66666666667,157.66666666667) scale(3.7766666666667)"><rect width="6" height="6"></rect></g>
<g transform="translate(707.66666666667,157.66666666667) scale(3.7766666666667)"><rect width="6" height="6"></rect></g>
<g transform="translate(729.66666666667,157.66666666667) scale(3.7766666666667)"><rect width="6" height="6"></rect></g>
<g transform="translate(311.66666666667,179.66666666667) scale(3.7766666666667)"><rect width="6" height="6"></rect></g>
<g transform="translate(333.66666666667,179.66666666667) scale(3.7766666666667)"><rect width="6" height="6"></rect></g>
<g transform="translate(355.66666666667,179.66666666667) scale(3.7766666666667)"><rect width="6" height="6"></rect></g>
<g transform="translate(377.66666666667,179.66666666667) scale(3.7766666666667)"><rect width="6" height="6"></rect></g>
<g transform="translate(421.66666666667,179.66666666667) scale(3.7766666666667)"><rect width="6" height="6"></rect></g>
<g transform="translate(509.66666666667,179.66666666667) scale(3.7766666666667)"><rect width="6" height="6"></rect></g>
<g transform="translate(531.66666666667,179.66666666667) scale(3.7766666666667)"><rect width="6" height="6"></rect></g>
<g transform="translate(597.66666666667,179.66666666667) scale(3.7766666666667)"><rect width="6" height="6"></rect></g>
<g transform="translate(619.66666666667,179.66666666667) scale(3.7766666666667)"><rect width="6" height="6"></rect></g>
<g transform="translate(729.66666666667,179.66666666667) scale(3.7766666666667)"><rect width="6" height="6"></rect></g>
<g transform="translate(751.66666666667,179.66666666667) scale(3.7766666666667)"><rect width="6" height="6"></rect></g>
<g transform="translate(355.66666666667,201.66666666667) scale(3.7766666666667)"><rect width="6" height="6"></rect></g>
<g transform="translate(399.66666666667,201.66666666667) scale(3.7766666666667)"><rect width="6" height="6"></rect></g>
<g transform="translate(443.66666666667,201.66666666667) scale(3.7766666666667)"><rect width="6" height="6"></rect></g>
<g transform="translate(487.66666666667,201.66666666667) scale(3.7766666666667)"><rect width="6" height="6"></rect></g>
<g transform="translate(509.66666666667,201.66666666667) scale(3.7766666666667)"><rect width="6" height="6"></rect></g>
<g transform="translate(531.66666666667,201.66666666667) scale(3.7766666666667)"><rect width="6" height="6"></rect></g>
<g transform="translate(597.66666666667,201.66666666667) scale(3.7766666666667)"><rect width="6" height="6"></rect></g>
<g transform="translate(619.66666666667,201.66666666667) scale(3.7766666666667)"><rect width="6" height="6"></rect></g>
<g transform="translate(641.66666666667,201.66666666667) scale(3.7766666666667)"><rect width="6" height="6"></rect></g>
<g transform="translate(663.66666666667,201.66666666667) scale(3.7766666666667)"><rect width="6" height="6"></rect></g>
<g transform="translate(685.66666666667,201.66666666667) scale(3.7766666666667)"><rect width="6" height="6"></rect></g>
<g transform="translate(729.66666666667,201.66666666667) scale(3.7766666666667)"><rect width="6" height="6"></rect></g>
<g transform="translate(355.66666666667,223.66666666667) scale(3.7766666666667)"><rect width="6" height="6"></rect></g>
<g transform="translate(377.66666666667,223.66666666667) scale(3.7766666666667)"><rect width="6" height="6"></rect></g>
<g transform="translate(421.66666666667,223.66666666667) scale(3.7766666666667)"><rect width="6" height="6"></rect></g>
<g transform="translate(443.66666666667,223.66666666667) scale(3.7766666666667)"><rect width="6" height="6"></rect></g>
<g transform="translate(553.66666666667,223.66666666667) scale(3.7766666666667)"><rect width="6" height="6"></rect></g>
<g transform="translate(597.66666666667,223.66666666667) scale(3.7766666666667)"><rect width="6" height="6"></rect></g>
<g transform="translate(685.66666666667,223.66666666667) scale(3.7766666666667)"><rect width="6" height="6"></rect></g>
<g transform="translate(311.66666666667,245.66666666667) scale(3.7766666666667)"><rect width="6" height="6"></rect></g>
<g transform="translate(377.66666666667,245.66666666667) scale(3.7766666666667)"><rect width="6" height="6"></rect></g>
<g transform="translate(399.66666666667,245.66666666667) scale(3.7766666666667)"><rect width="6" height="6"></rect></g>
<g transform="translate(465.66666666667,245.66666666667) scale(3.7766666666667)"><rect width="6" height="6"></rect></g>
<g transform="translate(531.66666666667,245.66666666667) scale(3.7766666666667)"><rect width="6" height="6"></rect></g>
<g transform="translate(597.66666666667,245.66666666667) scale(3.7766666666667)"><rect width="6" height="6"></rect></g>
<g transform="translate(641.66666666667,245.66666666667) scale(3.7766666666667)"><rect width="6" height="6"></rect></g>
<g transform="translate(685.66666666667,245.66666666667) scale(3.7766666666667)"><rect width="6" height="6"></rect></g>
<g transform="translate(707.66666666667,245.66666666667) scale(3.7766666666667)"><rect width="6" height="6"></rect></g>
<g transform="translate(729.66666666667,245.66666666667) scale(3.7766666666667)"><rect width="6" height="6"></rect></g>
<g transform="translate(751.66666666667,245.66666666667) scale(3.7766666666667)"><rect width="6" height="6"></rect></g>
<g transform="translate(311.66666666667,267.66666666667) scale(3.7766666666667)"><rect width="6" height="6"></rect></g>
<g transform="translate(355.66666666667,267.66666666667) scale(3.7766666666667)"><rect width="6" height="6"></rect></g>
<g transform="translate(399.66666666667,267.66666666667) scale(3.7766666666667)"><rect width="6" height="6"></rect></g>
<g transform="translate(443.66666666667,267.66666666667) scale(3.7766666666667)"><rect width="6" height="6"></rect></g>
<g transform="translate(487.66666666667,267.66666666667) scale(3.7766666666667)"><rect width="6" height="6"></rect></g>
<g transform="translate(531.66666666667,267.66666666667) scale(3.7766666666667)"><rect width="6" height="6"></rect></g>
<g transform="translate(575.66666666667,267.66666666667) scale(3.7766666666667)"><rect width="6" height="6"></rect></g>
<g transform="translate(619.66666666667,267.66666666667) scale(3.7766666666667)"><rect width="6" height="6"></rect></g>
<g transform="translate(663.66666666667,267.66666666667) scale(3.7766666666667)"><rect width="6" height="6"></rect></g>
<g transform="translate(707.66666666667,267.66666666667) scale(3.7766666666667)"><rect width="6" height="6"></rect></g>
<g transform="translate(751.66666666667,267.66666666667) scale(3.7766666666667)"><rect width="6" height="6"></rect></g>
<g transform="translate(311.66666666667,289.66666666667) scale(3.7766666666667)"><rect width="6" height="6"></rect></g>
<g transform="translate(333.66666666667,289.66666666667) scale(3.7766666666667)"><rect width="6" height="6"></rect></g>
<g transform="translate(399.66666666667,289.66666666667) scale(3.7766666666667)"><rect width="6" height="6"></rect></g>
<g transform="translate(421.66666666667,289.66666666667) scale(3.7766666666667)"><rect width="6" height="6"></rect></g>
<g transform="translate(465.66666666667,289.66666666667) scale(3.7766666666667)"><rect width="6" height="6"></rect></g>
<g transform="translate(531.66666666667,289.66666666667) scale(3.7766666666667)"><rect width="6" height="6"></rect></g>
<g transform="translate(553.66666666667,289.66666666667) scale(3.7766666666667)"><rect width="6" height="6"></rect></g>
<g transform="translate(575.66666666667,289.66666666667) scale(3.7766666666667)"><rect width="6" height="6"></rect></g>
<g transform="translate(619.66666666667,289.66666666667) scale(3.7766666666667)"><rect width="6" height="6"></rect></g>
<g transform="translate(663.66666666667,289.66666666667) scale(3.7766666666667)"><rect width="6" height="6"></rect></g>
<g transform="translate(685.66666666667,289.66666666667) scale(3.7766666666667)"><rect width="6" height="6"></rect></g>
<g transform="translate(751.66666666667,289.66666666667) scale(3.7766666666667)"><rect width="6" height="6"></rect></g>
<g transform="translate(179.66666666667,311.66666666667) scale(3.7766666666667)"><rect width="6" height="6"></rect></g>
<g transform="translate(201.66666666667,311.66666666667) scale(3.7766666666667)"><rect width="6" height="6"></rect></g>
<g transform="translate(223.66666666667,311.66666666667) scale(3.7766666666667)"><rect width="6" height="6"></rect></g>
<g transform="translate(267.66666666667,311.66666666667) scale(3.7766666666667)"><rect width="6" height="6"></rect></g>
<g transform="translate(311.66666666667,311.66666666667) scale(3.7766666666667)"><rect width="6" height="6"></rect></g>
<g transform="translate(333.66666666667,311.66666666667) scale(3.7766666666667)"><rect width="6" height="6"></rect></g>
<g transform="translate(377.66666666667,311.66666666667) scale(3.7766666666667)"><rect width="6" height="6"></rect></g>
<g transform="translate(399.66666666667,311.66666666667) scale(3.7766666666667)"><rect width="6" height="6"></rect></g>
<g transform="translate(421.66666666667,311.66666666667) scale(3.7766666666667)"><rect width="6" height="6"></rect></g>
<g transform="translate(465.66666666667,311.66666666667) scale(3.7766666666667)"><rect width="6" height="6"></rect></g>
<g transform="translate(553.66666666667,311.66666666667) scale(3.7766666666667)"><rect width="6" height="6"></rect></g>
<g transform="translate(575.66666666667,311.66666666667) scale(3.7766666666667)"><rect width="6" height="6"></rect></g>
<g transform="translate(707.66666666667,311.66666666667) scale(3.7766666666667)"><rect width="6" height="6"></rect></g>
<g transform="translate(751.66666666667,311.66666666667) scale(3.7766666666667)"><rect width="6" height="6"></rect></g>
<g transform="translate(773.66666666667,311.66666666667) scale(3.7766666666667)"><rect width="6" height="6"></rect></g>
<g transform="translate(795.66666666667,311.66666666667) scale(3.7766666666667)"><rect width="6" height="6"></rect></g>
<g transform="translate(817.66666666667,311.66666666667) scale(3.7766666666667)"><rect width="6" height="6"></rect></g>
<g transform="translate(883.66666666667,311.66666666667) scale(3.7766666666667)"><rect width="6" height="6"></rect></g>
<g transform="translate(905.66666666667,311.66666666667) scale(3.7766666666667)"><rect width="6" height="6"></rect></g>
<g transform="translate(927.66666666667,311.66666666667) scale(3.7766666666667)"><rect width="6" height="6"></rect></g>
<g transform="translate(179.66666666667,333.66666666667) scale(3.7766666666667)"><rect width="6" height="6"></rect></g>
<g transform="translate(311.66666666667,333.66666666667) scale(3.7766666666667)"><rect width="6" height="6"></rect></g>
<g transform="translate(355.66666666667,333.66666666667) scale(3.7766666666667)"><rect width="6" height="6"></rect></g>
<g transform="translate(421.66666666667,333.66666666667) scale(3.7766666666667)"><rect width="6" height="6"></rect></g>
<g transform="translate(443.66666666667,333.66666666667) scale(3.7766666666667)"><rect width="6" height="6"></rect></g>
<g transform="translate(509.66666666667,333.66666666667) scale(3.7766666666667)"><rect width="6" height="6"></rect></g>
<g transform="translate(553.66666666667,333.66666666667) scale(3.7766666666667)"><rect width="6" height="6"></rect></g>
<g transform="translate(597.66666666667,333.66666666667) scale(3.7766666666667)"><rect width="6" height="6"></rect></g>
<g transform="translate(663.66666666667,333.66666666667) scale(3.7766666666667)"><rect width="6" height="6"></rect></g>
<g transform="translate(685.66666666667,333.66666666667) scale(3.7766666666667)"><rect width="6" height="6"></rect></g>
<g transform="translate(729.66666666667,333.66666666667) scale(3.7766666666667)"><rect width="6" height="6"></rect></g>
<g transform="translate(883.66666666667,333.66666666667) scale(3.7766666666667)"><rect width="6" height="6"></rect></g>
<g transform="translate(135.66666666667,355.66666666667) scale(3.7766666666667)"><rect width="6" height="6"></rect></g>
<g transform="translate(157.66666666667,355.66666666667) scale(3.7766666666667)"><rect width="6" height="6"></rect></g>
<g transform="translate(179.66666666667,355.66666666667) scale(3.7766666666667)"><rect width="6" height="6"></rect></g>
<g transform="translate(245.66666666667,355.66666666667) scale(3.7766666666667)"><rect width="6" height="6"></rect></g>
<g transform="translate(267.66666666667,355.66666666667) scale(3.7766666666667)"><rect width="6" height="6"></rect></g>
<g transform="translate(289.66666666667,355.66666666667) scale(3.7766666666667)"><rect width="6" height="6"></rect></g>
<g transform="translate(311.66666666667,355.66666666667) scale(3.7766666666667)"><rect width="6" height="6"></rect></g>
<g transform="translate(333.66666666667,355.66666666667) scale(3.7766666666667)"><rect width="6" height="6"></rect></g>
<g transform="translate(355.66666666667,355.66666666667) scale(3.7766666666667)"><rect width="6" height="6"></rect></g>
<g transform="translate(465.66666666667,355.66666666667) scale(3.7766666666667)"><rect width="6" height="6"></rect></g>
<g transform="translate(487.66666666667,355.66666666667) scale(3.7766666666667)"><rect width="6" height="6"></rect></g>
<g transform="translate(553.66666666667,355.66666666667) scale(3.7766666666667)"><rect width="6" height="6"></rect></g>
<g transform="translate(641.66666666667,355.66666666667) scale(3.7766666666667)"><rect width="6" height="6"></rect></g>
<g transform="translate(663.66666666667,355.66666666667) scale(3.7766666666667)"><rect width="6" height="6"></rect></g>
<g transform="translate(685.66666666667,355.66666666667) scale(3.7766666666667)"><rect width="6" height="6"></rect></g>
<g transform="translate(707.66666666667,355.66666666667) scale(3.7766666666667)"><rect width="6" height="6"></rect></g>
<g transform="translate(729.66666666667,355.66666666667) scale(3.7766666666667)"><rect width="6" height="6"></rect></g>
<g transform="translate(751.66666666667,355.66666666667) scale(3.7766666666667)"><rect width="6" height="6"></rect></g>
<g transform="translate(795.66666666667,355.66666666667) scale(3.7766666666667)"><rect width="6" height="6"></rect></g>
<g transform="translate(839.66666666667,355.66666666667) scale(3.7766666666667)"><rect width="6" height="6"></rect></g>
<g transform="translate(861.66666666667,355.66666666667) scale(3.7766666666667)"><rect width="6" height="6"></rect></g>
<g transform="translate(883.66666666667,355.66666666667) scale(3.7766666666667)"><rect width="6" height="6"></rect></g>
<g transform="translate(927.66666666667,355.66666666667) scale(3.7766666666667)"><rect width="6" height="6"></rect></g>
<g transform="translate(201.66666666667,377.66666666667) scale(3.7766666666667)"><rect width="6" height="6"></rect></g>
<g transform="translate(245.66666666667,377.66666666667) scale(3.7766666666667)"><rect width="6" height="6"></rect></g>
<g transform="translate(377.66666666667,377.66666666667) scale(3.7766666666667)"><rect width="6" height="6"></rect></g>
<g transform="translate(399.66666666667,377.66666666667) scale(3.7766666666667)"><rect width="6" height="6"></rect></g>
<g transform="translate(421.66666666667,377.66666666667) scale(3.7766666666667)"><rect width="6" height="6"></rect></g>
<g transform="translate(443.66666666667,377.66666666667) scale(3.7766666666667)"><rect width="6" height="6"></rect></g>
<g transform="translate(575.66666666667,377.66666666667) scale(3.7766666666667)"><rect width="6" height="6"></rect></g>
<g transform="translate(597.66666666667,377.66666666667) scale(3.7766666666667)"><rect width="6" height="6"></rect></g>
<g transform="translate(619.66666666667,377.66666666667) scale(3.7766666666667)"><rect width="6" height="6"></rect></g>
<g transform="translate(641.66666666667,377.66666666667) scale(3.7766666666667)"><rect width="6" height="6"></rect></g>
<g transform="translate(663.66666666667,377.66666666667) scale(3.7766666666667)"><rect width="6" height="6"></rect></g>
<g transform="translate(707.66666666667,377.66666666667) scale(3.7766666666667)"><rect width="6" height="6"></rect></g>
<g transform="translate(729.66666666667,377.66666666667) scale(3.7766666666667)"><rect width="6" height="6"></rect></g>
<g transform="translate(795.66666666667,377.66666666667) scale(3.7766666666667)"><rect width="6" height="6"></rect></g>
<g transform="translate(927.66666666667,377.66666666667) scale(3.7766666666667)"><rect width="6" height="6"></rect></g>
<g transform="translate(135.66666666667,399.66666666667) scale(3.7766666666667)"><rect width="6" height="6"></rect></g>
<g transform="translate(179.66666666667,399.66666666667) scale(3.7766666666667)"><rect width="6" height="6"></rect></g>
<g transform="translate(201.66666666667,399.66666666667) scale(3.7766666666667)"><rect width="6" height="6"></rect></g>
<g transform="translate(267.66666666667,399.66666666667) scale(3.7766666666667)"><rect width="6" height="6"></rect></g>
<g transform="translate(289.66666666667,399.66666666667) scale(3.7766666666667)"><rect width="6" height="6"></rect></g>
<g transform="translate(311.66666666667,399.66666666667) scale(3.7766666666667)"><rect width="6" height="6"></rect></g>
<g transform="translate(333.66666666667,399.66666666667) scale(3.7766666666667)"><rect width="6" height="6"></rect></g>
<g transform="translate(377.66666666667,399.66666666667) scale(3.7766666666667)"><rect width="6" height="6"></rect></g>
<g transform="translate(399.66666666667,399.66666666667) scale(3.7766666666667)"><rect width="6" height="6"></rect></g>
<g transform="translate(443.66666666667,399.66666666667) scale(3.7766666666667)"><rect width="6" height="6"></rect></g>
<g transform="translate(531.66666666667,399.66666666667) scale(3.7766666666667)"><rect width="6" height="6"></rect></g>
<g transform="translate(575.66666666667,399.66666666667) scale(3.7766666666667)"><rect width="6" height="6"></rect></g>
<g transform="translate(641.66666666667,399.66666666667) scale(3.7766666666667)"><rect width="6" height="6"></rect></g>
<g transform="translate(663.66666666667,399.66666666667) scale(3.7766666666667)"><rect width="6" height="6"></rect></g>
<g transform="translate(685.66666666667,399.66666666667) scale(3.7766666666667)"><rect width="6" height="6"></rect></g>
<g transform="translate(707.66666666667,399.66666666667) scale(3.7766666666667)"><rect width="6" height="6"></rect></g>
<g transform="translate(729.66666666667,399.66666666667) scale(3.7766666666667)"><rect width="6" height="6"></rect></g>
<g transform="translate(751.66666666667,399.66666666667) scale(3.7766666666667)"><rect width="6" height="6"></rect></g>
<g transform="translate(773.66666666667,399.66666666667) scale(3.7766666666667)"><rect width="6" height="6"></rect></g>
<g transform="translate(795.66666666667,399.66666666667) scale(3.7766666666667)"><rect width="6" height="6"></rect></g>
<g transform="translate(839.66666666667,399.66666666667) scale(3.7766666666667)"><rect width="6" height="6"></rect></g>
<g transform="translate(861.66666666667,399.66666666667) scale(3.7766666666667)"><rect width="6" height="6"></rect></g>
<g transform="translate(883.66666666667,399.66666666667) scale(3.7766666666667)"><rect width="6" height="6"></rect></g>
<g transform="translate(905.66666666667,399.66666666667) scale(3.7766666666667)"><rect width="6" height="6"></rect></g>
<g transform="translate(289.66666666667,421.66666666667) scale(3.7766666666667)"><rect width="6" height="6"></rect></g>
<g transform="translate(333.66666666667,421.66666666667) scale(3.7766666666667)"><rect width="6" height="6"></rect></g>
<g transform="translate(377.66666666667,421.66666666667) scale(3.7766666666667)"><rect width="6" height="6"></rect></g>
<g transform="translate(443.66666666667,421.66666666667) scale(3.7766666666667)"><rect width="6" height="6"></rect></g>
<g transform="translate(509.66666666667,421.66666666667) scale(3.7766666666667)"><rect width="6" height="6"></rect></g>
<g transform="translate(575.66666666667,421.66666666667) scale(3.7766666666667)"><rect width="6" height="6"></rect></g>
<g transform="translate(597.66666666667,421.66666666667) scale(3.7766666666667)"><rect width="6" height="6"></rect></g>
<g transform="translate(663.66666666667,421.66666666667) scale(3.7766666666667)"><rect width="6" height="6"></rect></g>
<g transform="translate(751.66666666667,421.66666666667) scale(3.7766666666667)"><rect width="6" height="6"></rect></g>
<g transform="translate(773.66666666667,421.66666666667) scale(3.7766666666667)"><rect width="6" height="6"></rect></g>
<g transform="translate(817.66666666667,421.66666666667) scale(3.7766666666667)"><rect width="6" height="6"></rect></g>
<g transform="translate(861.66666666667,421.66666666667) scale(3.7766666666667)"><rect width="6" height="6"></rect></g>
<g transform="translate(883.66666666667,421.66666666667) scale(3.7766666666667)"><rect width="6" height="6"></rect></g>
<g transform="translate(905.66666666667,421.66666666667) scale(3.7766666666667)"><rect width="6" height="6"></rect></g>
<g transform="translate(179.66666666667,443.66666666667) scale(3.7766666666667)"><rect width="6" height="6"></rect></g>
<g transform="translate(223.66666666667,443.66666666667) scale(3.7766666666667)"><rect width="6" height="6"></rect></g>
<g transform="translate(245.66666666667,443.66666666667) scale(3.7766666666667)"><rect width="6" height="6"></rect></g>
<g transform="translate(267.66666666667,443.66666666667) scale(3.7766666666667)"><rect width="6" height="6"></rect></g>
<g transform="translate(289.66666666667,443.66666666667) scale(3.7766666666667)"><rect width="6" height="6"></rect></g>
<g transform="translate(355.66666666667,443.66666666667) scale(3.7766666666667)"><rect width="6" height="6"></rect></g>
<g transform="translate(377.66666666667,443.66666666667) scale(3.7766666666667)"><rect width="6" height="6"></rect></g>
<g transform="translate(399.66666666667,443.66666666667) scale(3.7766666666667)"><rect width="6" height="6"></rect></g>
<g transform="translate(421.66666666667,443.66666666667) scale(3.7766666666667)"><rect width="6" height="6"></rect></g>
<g transform="translate(465.66666666667,443.66666666667) scale(3.7766666666667)"><rect width="6" height="6"></rect></g>
<g transform="translate(487.66666666667,443.66666666667) scale(3.7766666666667)"><rect width="6" height="6"></rect></g>
<g transform="translate(531.66666666667,443.66666666667) scale(3.7766666666667)"><rect width="6" height="6"></rect></g>
<g transform="translate(597.66666666667,443.66666666667) scale(3.7766666666667)"><rect width="6" height="6"></rect></g>
<g transform="translate(641.66666666667,443.66666666667) scale(3.7766666666667)"><rect width="6" height="6"></rect></g>
<g transform="translate(663.66666666667,443.66666666667) scale(3.7766666666667)"><rect width="6" height="6"></rect></g>
<g transform="translate(685.66666666667,443.66666666667) scale(3.7766666666667)"><rect width="6" height="6"></rect></g>
<g transform="translate(729.66666666667,443.66666666667) scale(3.7766666666667)"><rect width="6" height="6"></rect></g>
<g transform="translate(773.66666666667,443.66666666667) scale(3.7766666666667)"><rect width="6" height="6"></rect></g>
<g transform="translate(817.66666666667,443.66666666667) scale(3.7766666666667)"><rect width="6" height="6"></rect></g>
<g transform="translate(861.66666666667,443.66666666667) scale(3.7766666666667)"><rect width="6" height="6"></rect></g>
<g transform="translate(905.66666666667,443.66666666667) scale(3.7766666666667)"><rect width="6" height="6"></rect></g>
<g transform="translate(927.66666666667,443.66666666667) scale(3.7766666666667)"><rect width="6" height="6"></rect></g>
<g transform="translate(223.66666666667,465.66666666667) scale(3.7766666666667)"><rect width="6" height="6"></rect></g>
<g transform="translate(311.66666666667,465.66666666667) scale(3.7766666666667)"><rect width="6" height="6"></rect></g>
<g transform="translate(377.66666666667,465.66666666667) scale(3.7766666666667)"><rect width="6" height="6"></rect></g>
<g transform="translate(399.66666666667,465.66666666667) scale(3.7766666666667)"><rect width="6" height="6"></rect></g>
<g transform="translate(465.66666666667,465.66666666667) scale(3.7766666666667)"><rect width="6" height="6"></rect></g>
<g transform="translate(509.66666666667,465.66666666667) scale(3.7766666666667)"><rect width="6" height="6"></rect></g>
<g transform="translate(575.66666666667,465.66666666667) scale(3.7766666666667)"><rect width="6" height="6"></rect></g>
<g transform="translate(619.66666666667,465.66666666667) scale(3.7766666666667)"><rect width="6" height="6"></rect></g>
<g transform="translate(641.66666666667,465.66666666667) scale(3.7766666666667)"><rect width="6" height="6"></rect></g>
<g transform="translate(663.66666666667,465.66666666667) scale(3.7766666666667)"><rect width="6" height="6"></rect></g>
<g transform="translate(729.66666666667,465.66666666667) scale(3.7766666666667)"><rect width="6" height="6"></rect></g>
<g transform="translate(773.66666666667,465.66666666667) scale(3.7766666666667)"><rect width="6" height="6"></rect></g>
<g transform="translate(817.66666666667,465.66666666667) scale(3.7766666666667)"><rect width="6" height="6"></rect></g>
<g transform="translate(905.66666666667,465.66666666667) scale(3.7766666666667)"><rect width="6" height="6"></rect></g>
<g transform="translate(927.66666666667,465.66666666667) scale(3.7766666666667)"><rect width="6" height="6"></rect></g>
<g transform="translate(135.66666666667,487.66666666667) scale(3.7766666666667)"><rect width="6" height="6"></rect></g>
<g transform="translate(201.66666666667,487.66666666667) scale(3.7766666666667)"><rect width="6" height="6"></rect></g>
<g transform="translate(267.66666666667,487.66666666667) scale(3.7766666666667)"><rect width="6" height="6"></rect></g>
<g transform="translate(289.66666666667,487.66666666667) scale(3.7766666666667)"><rect width="6" height="6"></rect></g>
<g transform="translate(311.66666666667,487.66666666667) scale(3.7766666666667)"><rect width="6" height="6"></rect></g>
<g transform="translate(377.66666666667,487.66666666667) scale(3.7766666666667)"><rect width="6" height="6"></rect></g>
<g transform="translate(399.66666666667,487.66666666667) scale(3.7766666666667)"><rect width="6" height="6"></rect></g>
<g transform="translate(421.66666666667,487.66666666667) scale(3.7766666666667)"><rect width="6" height="6"></rect></g>
<g transform="translate(465.66666666667,487.66666666667) scale(3.7766666666667)"><rect width="6" height="6"></rect></g>
<g transform="translate(487.66666666667,487.66666666667) scale(3.7766666666667)"><rect width="6" height="6"></rect></g>
<g transform="translate(531.66666666667,487.66666666667) scale(3.7766666666667)"><rect width="6" height="6"></rect></g>
<g transform="translate(619.66666666667,487.66666666667) scale(3.7766666666667)"><rect width="6" height="6"></rect></g>
<g transform="translate(641.66666666667,487.66666666667) scale(3.7766666666667)"><rect width="6" height="6"></rect></g>
<g transform="translate(685.66666666667,487.66666666667) scale(3.7766666666667)"><rect width="6" height="6"></rect></g>
<g transform="translate(707.66666666667,487.66666666667) scale(3.7766666666667)"><rect width="6" height="6"></rect></g>
<g transform="translate(751.66666666667,487.66666666667) scale(3.7766666666667)"><rect width="6" height="6"></rect></g>
<g transform="translate(773.66666666667,487.66666666667) scale(3.7766666666667)"><rect width="6" height="6"></rect></g>
<g transform="translate(795.66666666667,487.66666666667) scale(3.7766666666667)"><rect width="6" height="6"></rect></g>
<g transform="translate(839.66666666667,487.66666666667) scale(3.7766666666667)"><rect width="6" height="6"></rect></g>
<g transform="translate(883.66666666667,487.66666666667) scale(3.7766666666667)"><rect width="6" height="6"></rect></g>
<g transform="translate(927.66666666667,487.66666666667) scale(3.7766666666667)"><rect width="6" height="6"></rect></g>
<g transform="translate(157.66666666667,509.66666666667) scale(3.7766666666667)"><rect width="6" height="6"></rect></g>
<g transform="translate(179.66666666667,509.66666666667) scale(3.7766666666667)"><rect width="6" height="6"></rect></g>
<g transform="translate(245.66666666667,509.66666666667) scale(3.7766666666667)"><rect width="6" height="6"></rect></g>
<g transform="translate(289.66666666667,509.66666666667) scale(3.7766666666667)"><rect width="6" height="6"></rect></g>
<g transform="translate(311.66666666667,509.66666666667) scale(3.7766666666667)"><rect width="6" height="6"></rect></g>
<g transform="translate(355.66666666667,509.66666666667) scale(3.7766666666667)"><rect width="6" height="6"></rect></g>
<g transform="translate(377.66666666667,509.66666666667) scale(3.7766666666667)"><rect width="6" height="6"></rect></g>
<g transform="translate(421.66666666667,509.66666666667) scale(3.7766666666667)"><rect width="6" height="6"></rect></g>
<g transform="translate(443.66666666667,509.66666666667) scale(3.7766666666667)"><rect width="6" height="6"></rect></g>
<g transform="translate(487.66666666667,509.66666666667) scale(3.7766666666667)"><rect width="6" height="6"></rect></g>
<g transform="translate(553.66666666667,509.66666666667) scale(3.7766666666667)"><rect width="6" height="6"></rect></g>
<g transform="translate(575.66666666667,509.66666666667) scale(3.7766666666667)"><rect width="6" height="6"></rect></g>
<g transform="translate(597.66666666667,509.66666666667) scale(3.7766666666667)"><rect width="6" height="6"></rect></g>
<g transform="translate(619.66666666667,509.66666666667) scale(3.7766666666667)"><rect width="6" height="6"></rect></g>
<g transform="translate(663.66666666667,509.66666666667) scale(3.7766666666667)"><rect width="6" height="6"></rect></g>
<g transform="translate(685.66666666667,509.66666666667) scale(3.7766666666667)"><rect width="6" height="6"></rect></g>
<g transform="translate(751.66666666667,509.66666666667) scale(3.7766666666667)"><rect width="6" height="6"></rect></g>
<g transform="translate(773.66666666667,509.66666666667) scale(3.7766666666667)"><rect width="6" height="6"></rect></g>
<g transform="translate(817.66666666667,509.66666666667) scale(3.7766666666667)"><rect width="6" height="6"></rect></g>
<g transform="translate(135.66666666667,531.66666666667) scale(3.7766666666667)"><rect width="6" height="6"></rect></g>
<g transform="translate(179.66666666667,531.66666666667) scale(3.7766666666667)"><rect width="6" height="6"></rect></g>
<g transform="translate(201.66666666667,531.66666666667) scale(3.7766666666667)"><rect width="6" height="6"></rect></g>
<g transform="translate(223.66666666667,531.66666666667) scale(3.7766666666667)"><rect width="6" height="6"></rect></g>
<g transform="translate(245.66666666667,531.66666666667) scale(3.7766666666667)"><rect width="6" height="6"></rect></g>
<g transform="translate(267.66666666667,531.66666666667) scale(3.7766666666667)"><rect width="6" height="6"></rect></g>
<g transform="translate(311.66666666667,531.66666666667) scale(3.7766666666667)"><rect width="6" height="6"></rect></g>
<g transform="translate(355.66666666667,531.66666666667) scale(3.7766666666667)"><rect width="6" height="6"></rect></g>
<g transform="translate(377.66666666667,531.66666666667) scale(3.7766666666667)"><rect width="6" height="6"></rect></g>
<g transform="translate(487.66666666667,531.66666666667) scale(3.7766666666667)"><rect width="6" height="6"></rect></g>
<g transform="translate(531.66666666667,531.66666666667) scale(3.7766666666667)"><rect width="6" height="6"></rect></g>
<g transform="translate(663.66666666667,531.66666666667) scale(3.7766666666667)"><rect width="6" height="6"></rect></g>
<g transform="translate(707.66666666667,531.66666666667) scale(3.7766666666667)"><rect width="6" height="6"></rect></g>
<g transform="translate(729.66666666667,531.66666666667) scale(3.7766666666667)"><rect width="6" height="6"></rect></g>
<g transform="translate(751.66666666667,531.66666666667) scale(3.7766666666667)"><rect width="6" height="6"></rect></g>
<g transform="translate(905.66666666667,531.66666666667) scale(3.7766666666667)"><rect width="6" height="6"></rect></g>
<g transform="translate(927.66666666667,531.66666666667) scale(3.7766666666667)"><rect width="6" height="6"></rect></g>
<g transform="translate(179.66666666667,553.66666666667) scale(3.7766666666667)"><rect width="6" height="6"></rect></g>
<g transform="translate(201.66666666667,553.66666666667) scale(3.7766666666667)"><rect width="6" height="6"></rect></g>
<g transform="translate(245.66666666667,553.66666666667) scale(3.7766666666667)"><rect width="6" height="6"></rect></g>
<g transform="translate(311.66666666667,553.66666666667) scale(3.7766666666667)"><rect width="6" height="6"></rect></g>
<g transform="translate(333.66666666667,553.66666666667) scale(3.7766666666667)"><rect width="6" height="6"></rect></g>
<g transform="translate(355.66666666667,553.66666666667) scale(3.7766666666667)"><rect width="6" height="6"></rect></g>
<g transform="translate(377.66666666667,553.66666666667) scale(3.7766666666667)"><rect width="6" height="6"></rect></g>
<g transform="translate(465.66666666667,553.66666666667) scale(3.7766666666667)"><rect width="6" height="6"></rect></g>
<g transform="translate(553.66666666667,553.66666666667) scale(3.7766666666667)"><rect width="6" height="6"></rect></g>
<g transform="translate(597.66666666667,553.66666666667) scale(3.7766666666667)"><rect width="6" height="6"></rect></g>
<g transform="translate(641.66666666667,553.66666666667) scale(3.7766666666667)"><rect width="6" height="6"></rect></g>
<g transform="translate(707.66666666667,553.66666666667) scale(3.7766666666667)"><rect width="6" height="6"></rect></g>
<g transform="translate(751.66666666667,553.66666666667) scale(3.7766666666667)"><rect width="6" height="6"></rect></g>
<g transform="translate(773.66666666667,553.66666666667) scale(3.7766666666667)"><rect width="6" height="6"></rect></g>
<g transform="translate(795.66666666667,553.66666666667) scale(3.7766666666667)"><rect width="6" height="6"></rect></g>
<g transform="translate(817.66666666667,553.66666666667) scale(3.7766666666667)"><rect width="6" height="6"></rect></g>
<g transform="translate(861.66666666667,553.66666666667) scale(3.7766666666667)"><rect width="6" height="6"></rect></g>
<g transform="translate(135.66666666667,575.66666666667) scale(3.7766666666667)"><rect width="6" height="6"></rect></g>
<g transform="translate(157.66666666667,575.66666666667) scale(3.7766666666667)"><rect width="6" height="6"></rect></g>
<g transform="translate(201.66666666667,575.66666666667) scale(3.7766666666667)"><rect width="6" height="6"></rect></g>
<g transform="translate(267.66666666667,575.66666666667) scale(3.7766666666667)"><rect width="6" height="6"></rect></g>
<g transform="translate(289.66666666667,575.66666666667) scale(3.7766666666667)"><rect width="6" height="6"></rect></g>
<g transform="translate(333.66666666667,575.66666666667) scale(3.7766666666667)"><rect width="6" height="6"></rect></g>
<g transform="translate(399.66666666667,575.66666666667) scale(3.7766666666667)"><rect width="6" height="6"></rect></g>
<g transform="translate(465.66666666667,575.66666666667) scale(3.7766666666667)"><rect width="6" height="6"></rect></g>
<g transform="translate(509.66666666667,575.66666666667) scale(3.7766666666667)"><rect width="6" height="6"></rect></g>
<g transform="translate(553.66666666667,575.66666666667) scale(3.7766666666667)"><rect width="6" height="6"></rect></g>
<g transform="translate(597.66666666667,575.66666666667) scale(3.7766666666667)"><rect width="6" height="6"></rect></g>
<g transform="translate(619.66666666667,575.66666666667) scale(3.7766666666667)"><rect width="6" height="6"></rect></g>
<g transform="translate(685.66666666667,575.66666666667) scale(3.7766666666667)"><rect width="6" height="6"></rect></g>
<g transform="translate(707.66666666667,575.66666666667) scale(3.7766666666667)"><rect width="6" height="6"></rect></g>
<g transform="translate(773.66666666667,575.66666666667) scale(3.7766666666667)"><rect width="6" height="6"></rect></g>
<g transform="translate(795.66666666667,575.66666666667) scale(3.7766666666667)"><rect width="6" height="6"></rect></g>
<g transform="translate(817.66666666667,575.66666666667) scale(3.7766666666667)"><rect width="6" height="6"></rect></g>
<g transform="translate(839.66666666667,575.66666666667) scale(3.7766666666667)"><rect width="6" height="6"></rect></g>
<g transform="translate(861.66666666667,575.66666666667) scale(3.7766666666667)"><rect width="6" height="6"></rect></g>
<g transform="translate(883.66666666667,575.66666666667) scale(3.7766666666667)"><rect width="6" height="6"></rect></g>
<g transform="translate(905.66666666667,575.66666666667) scale(3.7766666666667)"><rect width="6" height="6"></rect></g>
<g transform="translate(927.66666666667,575.66666666667) scale(3.7766666666667)"><rect width="6" height="6"></rect></g>
<g transform="translate(135.66666666667,597.66666666667) scale(3.7766666666667)"><rect width="6" height="6"></rect></g>
<g transform="translate(201.66666666667,597.66666666667) scale(3.7766666666667)"><rect width="6" height="6"></rect></g>
<g transform="translate(245.66666666667,597.66666666667) scale(3.7766666666667)"><rect width="6" height="6"></rect></g>
<g transform="translate(289.66666666667,597.66666666667) scale(3.7766666666667)"><rect width="6" height="6"></rect></g>
<g transform="translate(399.66666666667,597.66666666667) scale(3.7766666666667)"><rect width="6" height="6"></rect></g>
<g transform="translate(421.66666666667,597.66666666667) scale(3.7766666666667)"><rect width="6" height="6"></rect></g>
<g transform="translate(531.66666666667,597.66666666667) scale(3.7766666666667)"><rect width="6" height="6"></rect></g>
<g transform="translate(597.66666666667,597.66666666667) scale(3.7766666666667)"><rect width="6" height="6"></rect></g>
<g transform="translate(641.66666666667,597.66666666667) scale(3.7766666666667)"><rect width="6" height="6"></rect></g>
<g transform="translate(663.66666666667,597.66666666667) scale(3.7766666666667)"><rect width="6" height="6"></rect></g>
<g transform="translate(707.66666666667,597.66666666667) scale(3.7766666666667)"><rect width="6" height="6"></rect></g>
<g transform="translate(817.66666666667,597.66666666667) scale(3.7766666666667)"><rect width="6" height="6"></rect></g>
<g transform="translate(883.66666666667,597.66666666667) scale(3.7766666666667)"><rect width="6" height="6"></rect></g>
<g transform="translate(157.66666666667,619.66666666667) scale(3.7766666666667)"><rect width="6" height="6"></rect></g>
<g transform="translate(201.66666666667,619.66666666667) scale(3.7766666666667)"><rect width="6" height="6"></rect></g>
<g transform="translate(223.66666666667,619.66666666667) scale(3.7766666666667)"><rect width="6" height="6"></rect></g>
<g transform="translate(245.66666666667,619.66666666667) scale(3.7766666666667)"><rect width="6" height="6"></rect></g>
<g transform="translate(267.66666666667,619.66666666667) scale(3.7766666666667)"><rect width="6" height="6"></rect></g>
<g transform="translate(355.66666666667,619.66666666667) scale(3.7766666666667)"><rect width="6" height="6"></rect></g>
<g transform="translate(421.66666666667,619.66666666667) scale(3.7766666666667)"><rect width="6" height="6"></rect></g>
<g transform="translate(465.66666666667,619.66666666667) scale(3.7766666666667)"><rect width="6" height="6"></rect></g>
<g transform="translate(553.66666666667,619.66666666667) scale(3.7766666666667)"><rect width="6" height="6"></rect></g>
<g transform="translate(575.66666666667,619.66666666667) scale(3.7766666666667)"><rect width="6" height="6"></rect></g>
<g transform="translate(619.66666666667,619.66666666667) scale(3.7766666666667)"><rect width="6" height="6"></rect></g>
<g transform="translate(641.66666666667,619.66666666667) scale(3.7766666666667)"><rect width="6" height="6"></rect></g>
<g transform="translate(663.66666666667,619.66666666667) scale(3.7766666666667)"><rect width="6" height="6"></rect></g>
<g transform="translate(729.66666666667,619.66666666667) scale(3.7766666666667)"><rect width="6" height="6"></rect></g>
<g transform="translate(773.66666666667,619.66666666667) scale(3.7766666666667)"><rect width="6" height="6"></rect></g>
<g transform="translate(905.66666666667,619.66666666667) scale(3.7766666666667)"><rect width="6" height="6"></rect></g>
<g transform="translate(927.66666666667,619.66666666667) scale(3.7766666666667)"><rect width="6" height="6"></rect></g>
<g transform="translate(289.66666666667,641.66666666667) scale(3.7766666666667)"><rect width="6" height="6"></rect></g>
<g transform="translate(355.66666666667,641.66666666667) scale(3.7766666666667)"><rect width="6" height="6"></rect></g>
<g transform="translate(377.66666666667,641.66666666667) scale(3.7766666666667)"><rect width="6" height="6"></rect></g>
<g transform="translate(465.66666666667,641.66666666667) scale(3.7766666666667)"><rect width="6" height="6"></rect></g>
<g transform="translate(487.66666666667,641.66666666667) scale(3.7766666666667)"><rect width="6" height="6"></rect></g>
<g transform="translate(531.66666666667,641.66666666667) scale(3.7766666666667)"><rect width="6" height="6"></rect></g>
<g transform="translate(575.66666666667,641.66666666667) scale(3.7766666666667)"><rect width="6" height="6"></rect></g>
<g transform="translate(597.66666666667,641.66666666667) scale(3.7766666666667)"><rect width="6" height="6"></rect></g>
<g transform="translate(619.66666666667,641.66666666667) scale(3.7766666666667)"><rect width="6" height="6"></rect></g>
<g transform="translate(663.66666666667,641.66666666667) scale(3.7766666666667)"><rect width="6" height="6"></rect></g>
<g transform="translate(707.66666666667,641.66666666667) scale(3.7766666666667)"><rect width="6" height="6"></rect></g>
<g transform="translate(773.66666666667,641.66666666667) scale(3.7766666666667)"><rect width="6" height="6"></rect></g>
<g transform="translate(817.66666666667,641.66666666667) scale(3.7766666666667)"><rect width="6" height="6"></rect></g>
<g transform="translate(905.66666666667,641.66666666667) scale(3.7766666666667)"><rect width="6" height="6"></rect></g>
<g transform="translate(927.66666666667,641.66666666667) scale(3.7766666666667)"><rect width="6" height="6"></rect></g>
<g transform="translate(135.66666666667,663.66666666667) scale(3.7766666666667)"><rect width="6" height="6"></rect></g>
<g transform="translate(157.66666666667,663.66666666667) scale(3.7766666666667)"><rect width="6" height="6"></rect></g>
<g transform="translate(267.66666666667,663.66666666667) scale(3.7766666666667)"><rect width="6" height="6"></rect></g>
<g transform="translate(289.66666666667,663.66666666667) scale(3.7766666666667)"><rect width="6" height="6"></rect></g>
<g transform="translate(311.66666666667,663.66666666667) scale(3.7766666666667)"><rect width="6" height="6"></rect></g>
<g transform="translate(333.66666666667,663.66666666667) scale(3.7766666666667)"><rect width="6" height="6"></rect></g>
<g transform="translate(465.66666666667,663.66666666667) scale(3.7766666666667)"><rect width="6" height="6"></rect></g>
<g transform="translate(487.66666666667,663.66666666667) scale(3.7766666666667)"><rect width="6" height="6"></rect></g>
<g transform="translate(531.66666666667,663.66666666667) scale(3.7766666666667)"><rect width="6" height="6"></rect></g>
<g transform="translate(575.66666666667,663.66666666667) scale(3.7766666666667)"><rect width="6" height="6"></rect></g>
<g transform="translate(597.66666666667,663.66666666667) scale(3.7766666666667)"><rect width="6" height="6"></rect></g>
<g transform="translate(619.66666666667,663.66666666667) scale(3.7766666666667)"><rect width="6" height="6"></rect></g>
<g transform="translate(641.66666666667,663.66666666667) scale(3.7766666666667)"><rect width="6" height="6"></rect></g>
<g transform="translate(795.66666666667,663.66666666667) scale(3.7766666666667)"><rect width="6" height="6"></rect></g>
<g transform="translate(817.66666666667,663.66666666667) scale(3.7766666666667)"><rect width="6" height="6"></rect></g>
<g transform="translate(839.66666666667,663.66666666667) scale(3.7766666666667)"><rect width="6" height="6"></rect></g>
<g transform="translate(883.66666666667,663.66666666667) scale(3.7766666666667)"><rect width="6" height="6"></rect></g>
<g transform="translate(927.66666666667,663.66666666667) scale(3.7766666666667)"><rect width="6" height="6"></rect></g>
<g transform="translate(135.66666666667,685.66666666667) scale(3.7766666666667)"><rect width="6" height="6"></rect></g>
<g transform="translate(201.66666666667,685.66666666667) scale(3.7766666666667)"><rect width="6" height="6"></rect></g>
<g transform="translate(311.66666666667,685.66666666667) scale(3.7766666666667)"><rect width="6" height="6"></rect></g>
<g transform="translate(355.66666666667,685.66666666667) scale(3.7766666666667)"><rect width="6" height="6"></rect></g>
<g transform="translate(399.66666666667,685.66666666667) scale(3.7766666666667)"><rect width="6" height="6"></rect></g>
<g transform="translate(421.66666666667,685.66666666667) scale(3.7766666666667)"><rect width="6" height="6"></rect></g>
<g transform="translate(531.66666666667,685.66666666667) scale(3.7766666666667)"><rect width="6" height="6"></rect></g>
<g transform="translate(597.66666666667,685.66666666667) scale(3.7766666666667)"><rect width="6" height="6"></rect></g>
<g transform="translate(619.66666666667,685.66666666667) scale(3.7766666666667)"><rect width="6" height="6"></rect></g>
<g transform="translate(663.66666666667,685.66666666667) scale(3.7766666666667)"><rect width="6" height="6"></rect></g>
<g transform="translate(685.66666666667,685.66666666667) scale(3.7766666666667)"><rect width="6" height="6"></rect></g>
<g transform="translate(707.66666666667,685.66666666667) scale(3.7766666666667)"><rect width="6" height="6"></rect></g>
<g transform="translate(729.66666666667,685.66666666667) scale(3.7766666666667)"><rect width="6" height="6"></rect></g>
<g transform="translate(751.66666666667,685.66666666667) scale(3.7766666666667)"><rect width="6" height="6"></rect></g>
<g transform="translate(795.66666666667,685.66666666667) scale(3.7766666666667)"><rect width="6" height="6"></rect></g>
<g transform="translate(817.66666666667,685.66666666667) scale(3.7766666666667)"><rect width="6" height="6"></rect></g>
<g transform="translate(883.66666666667,685.66666666667) scale(3.7766666666667)"><rect width="6" height="6"></rect></g>
<g transform="translate(135.66666666667,707.66666666667) scale(3.7766666666667)"><rect width="6" height="6"></rect></g>
<g transform="translate(201.66666666667,707.66666666667) scale(3.7766666666667)"><rect width="6" height="6"></rect></g>
<g transform="translate(267.66666666667,707.66666666667) scale(3.7766666666667)"><rect width="6" height="6"></rect></g>
<g transform="translate(289.66666666667,707.66666666667) scale(3.7766666666667)"><rect width="6" height="6"></rect></g>
<g transform="translate(311.66666666667,707.66666666667) scale(3.7766666666667)"><rect width="6" height="6"></rect></g>
<g transform="translate(465.66666666667,707.66666666667) scale(3.7766666666667)"><rect width="6" height="6"></rect></g>
<g transform="translate(487.66666666667,707.66666666667) scale(3.7766666666667)"><rect width="6" height="6"></rect></g>
<g transform="translate(509.66666666667,707.66666666667) scale(3.7766666666667)"><rect width="6" height="6"></rect></g>
<g transform="translate(619.66666666667,707.66666666667) scale(3.7766666666667)"><rect width="6" height="6"></rect></g>
<g transform="translate(685.66666666667,707.66666666667) scale(3.7766666666667)"><rect width="6" height="6"></rect></g>
<g transform="translate(795.66666666667,707.66666666667) scale(3.7766666666667)"><rect width="6" height="6"></rect></g>
<g transform="translate(817.66666666667,707.66666666667) scale(3.7766666666667)"><rect width="6" height="6"></rect></g>
<g transform="translate(861.66666666667,707.66666666667) scale(3.7766666666667)"><rect width="6" height="6"></rect></g>
<g transform="translate(883.66666666667,707.66666666667) scale(3.7766666666667)"><rect width="6" height="6"></rect></g>
<g transform="translate(905.66666666667,707.66666666667) scale(3.7766666666667)"><rect width="6" height="6"></rect></g>
<g transform="translate(927.66666666667,707.66666666667) scale(3.7766666666667)"><rect width="6" height="6"></rect></g>
<g transform="translate(135.66666666667,729.66666666667) scale(3.7766666666667)"><rect width="6" height="6"></rect></g>
<g transform="translate(223.66666666667,729.66666666667) scale(3.7766666666667)"><rect width="6" height="6"></rect></g>
<g transform="translate(245.66666666667,729.66666666667) scale(3.7766666666667)"><rect width="6" height="6"></rect></g>
<g transform="translate(289.66666666667,729.66666666667) scale(3.7766666666667)"><rect width="6" height="6"></rect></g>
<g transform="translate(311.66666666667,729.66666666667) scale(3.7766666666667)"><rect width="6" height="6"></rect></g>
<g transform="translate(333.66666666667,729.66666666667) scale(3.7766666666667)"><rect width="6" height="6"></rect></g>
<g transform="translate(355.66666666667,729.66666666667) scale(3.7766666666667)"><rect width="6" height="6"></rect></g>
<g transform="translate(421.66666666667,729.66666666667) scale(3.7766666666667)"><rect width="6" height="6"></rect></g>
<g transform="translate(465.66666666667,729.66666666667) scale(3.7766666666667)"><rect width="6" height="6"></rect></g>
<g transform="translate(487.66666666667,729.66666666667) scale(3.7766666666667)"><rect width="6" height="6"></rect></g>
<g transform="translate(509.66666666667,729.66666666667) scale(3.7766666666667)"><rect width="6" height="6"></rect></g>
<g transform="translate(531.66666666667,729.66666666667) scale(3.7766666666667)"><rect width="6" height="6"></rect></g>
<g transform="translate(575.66666666667,729.66666666667) scale(3.7766666666667)"><rect width="6" height="6"></rect></g>
<g transform="translate(597.66666666667,729.66666666667) scale(3.7766666666667)"><rect width="6" height="6"></rect></g>
<g transform="translate(619.66666666667,729.66666666667) scale(3.7766666666667)"><rect width="6" height="6"></rect></g>
<g transform="translate(663.66666666667,729.66666666667) scale(3.7766666666667)"><rect width="6" height="6"></rect></g>
<g transform="translate(751.66666666667,729.66666666667) scale(3.7766666666667)"><rect width="6" height="6"></rect></g>
<g transform="translate(773.66666666667,729.66666666667) scale(3.7766666666667)"><rect width="6" height="6"></rect></g>
<g transform="translate(817.66666666667,729.66666666667) scale(3.7766666666667)"><rect width="6" height="6"></rect></g>
<g transform="translate(905.66666666667,729.66666666667) scale(3.7766666666667)"><rect width="6" height="6"></rect></g>
<g transform="translate(927.66666666667,729.66666666667) scale(3.7766666666667)"><rect width="6" height="6"></rect></g>
<g transform="translate(135.66666666667,751.66666666667) scale(3.7766666666667)"><rect width="6" height="6"></rect></g>
<g transform="translate(179.66666666667,751.66666666667) scale(3.7766666666667)"><rect width="6" height="6"></rect></g>
<g transform="translate(245.66666666667,751.66666666667) scale(3.7766666666667)"><rect width="6" height="6"></rect></g>
<g transform="translate(267.66666666667,751.66666666667) scale(3.7766666666667)"><rect width="6" height="6"></rect></g>
<g transform="translate(289.66666666667,751.66666666667) scale(3.7766666666667)"><rect width="6" height="6"></rect></g>
<g transform="translate(311.66666666667,751.66666666667) scale(3.7766666666667)"><rect width="6" height="6"></rect></g>
<g transform="translate(333.66666666667,751.66666666667) scale(3.7766666666667)"><rect width="6" height="6"></rect></g>
<g transform="translate(355.66666666667,751.66666666667) scale(3.7766666666667)"><rect width="6" height="6"></rect></g>
<g transform="translate(421.66666666667,751.66666666667) scale(3.7766666666667)"><rect width="6" height="6"></rect></g>
<g transform="translate(443.66666666667,751.66666666667) scale(3.7766666666667)"><rect width="6" height="6"></rect></g>
<g transform="translate(553.66666666667,751.66666666667) scale(3.7766666666667)"><rect width="6" height="6"></rect></g>
<g transform="translate(597.66666666667,751.66666666667) scale(3.7766666666667)"><rect width="6" height="6"></rect></g>
<g transform="translate(619.66666666667,751.66666666667) scale(3.7766666666667)"><rect width="6" height="6"></rect></g>
<g transform="translate(663.66666666667,751.66666666667) scale(3.7766666666667)"><rect width="6" height="6"></rect></g>
<g transform="translate(685.66666666667,751.66666666667) scale(3.7766666666667)"><rect width="6" height="6"></rect></g>
<g transform="translate(707.66666666667,751.66666666667) scale(3.7766666666667)"><rect width="6" height="6"></rect></g>
<g transform="translate(751.66666666667,751.66666666667) scale(3.7766666666667)"><rect width="6" height="6"></rect></g>
<g transform="translate(773.66666666667,751.66666666667) scale(3.7766666666667)"><rect width="6" height="6"></rect></g>
<g transform="translate(795.66666666667,751.66666666667) scale(3.7766666666667)"><rect width="6" height="6"></rect></g>
<g transform="translate(817.66666666667,751.66666666667) scale(3.7766666666667)"><rect width="6" height="6"></rect></g>
<g transform="translate(839.66666666667,751.66666666667) scale(3.7766666666667)"><rect width="6" height="6"></rect></g>
<g transform="translate(861.66666666667,751.66666666667) scale(3.7766666666667)"><rect width="6" height="6"></rect></g>
<g transform="translate(883.66666666667,751.66666666667) scale(3.7766666666667)"><rect width="6" height="6"></rect></g>
<g transform="translate(311.66666666667,773.66666666667) scale(3.7766666666667)"><rect width="6" height="6"></rect></g>
<g transform="translate(399.66666666667,773.66666666667) scale(3.7766666666667)"><rect width="6" height="6"></rect></g>
<g transform="translate(421.66666666667,773.66666666667) scale(3.7766666666667)"><rect width="6" height="6"></rect></g>
<g transform="translate(443.66666666667,773.66666666667) scale(3.7766666666667)"><rect width="6" height="6"></rect></g>
<g transform="translate(531.66666666667,773.66666666667) scale(3.7766666666667)"><rect width="6" height="6"></rect></g>
<g transform="translate(641.66666666667,773.66666666667) scale(3.7766666666667)"><rect width="6" height="6"></rect></g>
<g transform="translate(729.66666666667,773.66666666667) scale(3.7766666666667)"><rect width="6" height="6"></rect></g>
<g transform="translate(751.66666666667,773.66666666667) scale(3.7766666666667)"><rect width="6" height="6"></rect></g>
<g transform="translate(839.66666666667,773.66666666667) scale(3.7766666666667)"><rect width="6" height="6"></rect></g>
<g transform="translate(905.66666666667,773.66666666667) scale(3.7766666666667)"><rect width="6" height="6"></rect></g>
<g transform="translate(333.66666666667,795.66666666667) scale(3.7766666666667)"><rect width="6" height="6"></rect></g>
<g transform="translate(443.66666666667,795.66666666667) scale(3.7766666666667)"><rect width="6" height="6"></rect></g>
<g transform="translate(531.66666666667,795.66666666667) scale(3.7766666666667)"><rect width="6" height="6"></rect></g>
<g transform="translate(575.66666666667,795.66666666667) scale(3.7766666666667)"><rect width="6" height="6"></rect></g>
<g transform="translate(597.66666666667,795.66666666667) scale(3.7766666666667)"><rect width="6" height="6"></rect></g>
<g transform="translate(663.66666666667,795.66666666667) scale(3.7766666666667)"><rect width="6" height="6"></rect></g>
<g transform="translate(751.66666666667,795.66666666667) scale(3.7766666666667)"><rect width="6" height="6"></rect></g>
<g transform="translate(795.66666666667,795.66666666667) scale(3.7766666666667)"><rect width="6" height="6"></rect></g>
<g transform="translate(839.66666666667,795.66666666667) scale(3.7766666666667)"><rect width="6" height="6"></rect></g>
<g transform="translate(861.66666666667,795.66666666667) scale(3.7766666666667)"><rect width="6" height="6"></rect></g>
<g transform="translate(905.66666666667,795.66666666667) scale(3.7766666666667)"><rect width="6" height="6"></rect></g>
<g transform="translate(927.66666666667,795.66666666667) scale(3.7766666666667)"><rect width="6" height="6"></rect></g>
<g transform="translate(333.66666666667,817.66666666667) scale(3.7766666666667)"><rect width="6" height="6"></rect></g>
<g transform="translate(355.66666666667,817.66666666667) scale(3.7766666666667)"><rect width="6" height="6"></rect></g>
<g transform="translate(399.66666666667,817.66666666667) scale(3.7766666666667)"><rect width="6" height="6"></rect></g>
<g transform="translate(421.66666666667,817.66666666667) scale(3.7766666666667)"><rect width="6" height="6"></rect></g>
<g transform="translate(443.66666666667,817.66666666667) scale(3.7766666666667)"><rect width="6" height="6"></rect></g>
<g transform="translate(465.66666666667,817.66666666667) scale(3.7766666666667)"><rect width="6" height="6"></rect></g>
<g transform="translate(487.66666666667,817.66666666667) scale(3.7766666666667)"><rect width="6" height="6"></rect></g>
<g transform="translate(531.66666666667,817.66666666667) scale(3.7766666666667)"><rect width="6" height="6"></rect></g>
<g transform="translate(575.66666666667,817.66666666667) scale(3.7766666666667)"><rect width="6" height="6"></rect></g>
<g transform="translate(619.66666666667,817.66666666667) scale(3.7766666666667)"><rect width="6" height="6"></rect></g>
<g transform="translate(707.66666666667,817.66666666667) scale(3.7766666666667)"><rect width="6" height="6"></rect></g>
<g transform="translate(751.66666666667,817.66666666667) scale(3.7766666666667)"><rect width="6" height="6"></rect></g>
<g transform="translate(839.66666666667,817.66666666667) scale(3.7766666666667)"><rect width="6" height="6"></rect></g>
<g transform="translate(905.66666666667,817.66666666667) scale(3.7766666666667)"><rect width="6" height="6"></rect></g>
<g transform="translate(927.66666666667,817.66666666667) scale(3.7766666666667)"><rect width="6" height="6"></rect></g>
<g transform="translate(311.66666666667,839.66666666667) scale(3.7766666666667)"><rect width="6" height="6"></rect></g>
<g transform="translate(355.66666666667,839.66666666667) scale(3.7766666666667)"><rect width="6" height="6"></rect></g>
<g transform="translate(377.66666666667,839.66666666667) scale(3.7766666666667)"><rect width="6" height="6"></rect></g>
<g transform="translate(399.66666666667,839.66666666667) scale(3.7766666666667)"><rect width="6" height="6"></rect></g>
<g transform="translate(443.66666666667,839.66666666667) scale(3.7766666666667)"><rect width="6" height="6"></rect></g>
<g transform="translate(465.66666666667,839.66666666667) scale(3.7766666666667)"><rect width="6" height="6"></rect></g>
<g transform="translate(531.66666666667,839.66666666667) scale(3.7766666666667)"><rect width="6" height="6"></rect></g>
<g transform="translate(553.66666666667,839.66666666667) scale(3.7766666666667)"><rect width="6" height="6"></rect></g>
<g transform="translate(619.66666666667,839.66666666667) scale(3.7766666666667)"><rect width="6" height="6"></rect></g>
<g transform="translate(641.66666666667,839.66666666667) scale(3.7766666666667)"><rect width="6" height="6"></rect></g>
<g transform="translate(663.66666666667,839.66666666667) scale(3.7766666666667)"><rect width="6" height="6"></rect></g>
<g transform="translate(685.66666666667,839.66666666667) scale(3.7766666666667)"><rect width="6" height="6"></rect></g>
<g transform="translate(707.66666666667,839.66666666667) scale(3.7766666666667)"><rect width="6" height="6"></rect></g>
<g transform="translate(729.66666666667,839.66666666667) scale(3.7766666666667)"><rect width="6" height="6"></rect></g>
<g transform="translate(751.66666666667,839.66666666667) scale(3.7766666666667)"><rect width="6" height="6"></rect></g>
<g transform="translate(773.66666666667,839.66666666667) scale(3.7766666666667)"><rect width="6" height="6"></rect></g>
<g transform="translate(795.66666666667,839.66666666667) scale(3.7766666666667)"><rect width="6" height="6"></rect></g>
<g transform="translate(817.66666666667,839.66666666667) scale(3.7766666666667)"><rect width="6" height="6"></rect></g>
<g transform="translate(839.66666666667,839.66666666667) scale(3.7766666666667)"><rect width="6" height="6"></rect></g>
<g transform="translate(883.66666666667,839.66666666667) scale(3.7766666666667)"><rect width="6" height="6"></rect></g>
<g transform="translate(905.66666666667,839.66666666667) scale(3.7766666666667)"><rect width="6" height="6"></rect></g>
<g transform="translate(311.66666666667,861.66666666667) scale(3.7766666666667)"><rect width="6" height="6"></rect></g>
<g transform="translate(355.66666666667,861.66666666667) scale(3.7766666666667)"><rect width="6" height="6"></rect></g>
<g transform="translate(377.66666666667,861.66666666667) scale(3.7766666666667)"><rect width="6" height="6"></rect></g>
<g transform="translate(465.66666666667,861.66666666667) scale(3.7766666666667)"><rect width="6" height="6"></rect></g>
<g transform="translate(509.66666666667,861.66666666667) scale(3.7766666666667)"><rect width="6" height="6"></rect></g>
<g transform="translate(597.66666666667,861.66666666667) scale(3.7766666666667)"><rect width="6" height="6"></rect></g>
<g transform="translate(619.66666666667,861.66666666667) scale(3.7766666666667)"><rect width="6" height="6"></rect></g>
<g transform="translate(751.66666666667,861.66666666667) scale(3.7766666666667)"><rect width="6" height="6"></rect></g>
<g transform="translate(795.66666666667,861.66666666667) scale(3.7766666666667)"><rect width="6" height="6"></rect></g>
<g transform="translate(839.66666666667,861.66666666667) scale(3.7766666666667)"><rect width="6" height="6"></rect></g>
<g transform="translate(883.66666666667,861.66666666667) scale(3.7766666666667)"><rect width="6" height="6"></rect></g>
<g transform="translate(311.66666666667,883.66666666667) scale(3.7766666666667)"><rect width="6" height="6"></rect></g>
<g transform="translate(355.66666666667,883.66666666667) scale(3.7766666666667)"><rect width="6" height="6"></rect></g>
<g transform="translate(421.66666666667,883.66666666667) scale(3.7766666666667)"><rect width="6" height="6"></rect></g>
<g transform="translate(443.66666666667,883.66666666667) scale(3.7766666666667)"><rect width="6" height="6"></rect></g>
<g transform="translate(487.66666666667,883.66666666667) scale(3.7766666666667)"><rect width="6" height="6"></rect></g>
<g transform="translate(509.66666666667,883.66666666667) scale(3.7766666666667)"><rect width="6" height="6"></rect></g>
<g transform="translate(531.66666666667,883.66666666667) scale(3.7766666666667)"><rect width="6" height="6"></rect></g>
<g transform="translate(553.66666666667,883.66666666667) scale(3.7766666666667)"><rect width="6" height="6"></rect></g>
<g transform="translate(575.66666666667,883.66666666667) scale(3.7766666666667)"><rect width="6" height="6"></rect></g>
<g transform="translate(597.66666666667,883.66666666667) scale(3.7766666666667)"><rect width="6" height="6"></rect></g>
<g transform="translate(641.66666666667,883.66666666667) scale(3.7766666666667)"><rect width="6" height="6"></rect></g>
<g transform="translate(663.66666666667,883.66666666667) scale(3.7766666666667)"><rect width="6" height="6"></rect></g>
<g transform="translate(773.66666666667,883.66666666667) scale(3.7766666666667)"><rect width="6" height="6"></rect></g>
<g transform="translate(817.66666666667,883.66666666667) scale(3.7766666666667)"><rect width="6" height="6"></rect></g>
<g transform="translate(861.66666666667,883.66666666667) scale(3.7766666666667)"><rect width="6" height="6"></rect></g>
<g transform="translate(883.66666666667,883.66666666667) scale(3.7766666666667)"><rect width="6" height="6"></rect></g>
<g transform="translate(927.66666666667,883.66666666667) scale(3.7766666666667)"><rect width="6" height="6"></rect></g>
<g transform="translate(333.66666666667,905.66666666667) scale(3.7766666666667)"><rect width="6" height="6"></rect></g>
<g transform="translate(355.66666666667,905.66666666667) scale(3.7766666666667)"><rect width="6" height="6"></rect></g>
<g transform="translate(377.66666666667,905.66666666667) scale(3.7766666666667)"><rect width="6" height="6"></rect></g>
<g transform="translate(443.66666666667,905.66666666667) scale(3.7766666666667)"><rect width="6" height="6"></rect></g>
<g transform="translate(465.66666666667,905.66666666667) scale(3.7766666666667)"><rect width="6" height="6"></rect></g>
<g transform="translate(487.66666666667,905.66666666667) scale(3.7766666666667)"><rect width="6" height="6"></rect></g>
<g transform="translate(531.66666666667,905.66666666667) scale(3.7766666666667)"><rect width="6" height="6"></rect></g>
<g transform="translate(575.66666666667,905.66666666667) scale(3.7766666666667)"><rect width="6" height="6"></rect></g>
<g transform="translate(597.66666666667,905.66666666667) scale(3.7766666666667)"><rect width="6" height="6"></rect></g>
<g transform="translate(619.66666666667,905.66666666667) scale(3.7766666666667)"><rect width="6" height="6"></rect></g>
<g transform="translate(641.66666666667,905.66666666667) scale(3.7766666666667)"><rect width="6" height="6"></rect></g>
<g transform="translate(729.66666666667,905.66666666667) scale(3.7766666666667)"><rect width="6" height="6"></rect></g>
<g transform="translate(751.66666666667,905.66666666667) scale(3.7766666666667)"><rect width="6" height="6"></rect></g>
<g transform="translate(795.66666666667,905.66666666667) scale(3.7766666666667)"><rect width="6" height="6"></rect></g>
<g transform="translate(817.66666666667,905.66666666667) scale(3.7766666666667)"><rect width="6" height="6"></rect></g>
<g transform="translate(839.66666666667,905.66666666667) scale(3.7766666666667)"><rect width="6" height="6"></rect></g>
<g transform="translate(927.66666666667,905.66666666667) scale(3.7766666666667)"><rect width="6" height="6"></rect></g>
<g transform="translate(333.66666666667,927.66666666667) scale(3.7766666666667)"><rect width="6" height="6"></rect></g>
<g transform="translate(399.66666666667,927.66666666667) scale(3.7766666666667)"><rect width="6" height="6"></rect></g>
<g transform="translate(443.66666666667,927.66666666667) scale(3.7766666666667)"><rect width="6" height="6"></rect></g>
<g transform="translate(509.66666666667,927.66666666667) scale(3.7766666666667)"><rect width="6" height="6"></rect></g>
<g transform="translate(553.66666666667,927.66666666667) scale(3.7766666666667)"><rect width="6" height="6"></rect></g>
<g transform="translate(641.66666666667,927.66666666667) scale(3.7766666666667)"><rect width="6" height="6"></rect></g>
<g transform="translate(663.66666666667,927.66666666667) scale(3.7766666666667)"><rect width="6" height="6"></rect></g>
<g transform="translate(685.66666666667,927.66666666667) scale(3.7766666666667)"><rect width="6" height="6"></rect></g>
<g transform="translate(707.66666666667,927.66666666667) scale(3.7766666666667)"><rect width="6" height="6"></rect></g>
<g transform="translate(729.66666666667,927.66666666667) scale(3.7766666666667)"><rect width="6" height="6"></rect></g>
<g transform="translate(795.66666666667,927.66666666667) scale(3.7766666666667)"><rect width="6" height="6"></rect></g>
<g transform="translate(817.66666666667,927.66666666667) scale(3.7766666666667)"><rect width="6" height="6"></rect></g>
<g transform="translate(883.66666666667,927.66666666667) scale(3.7766666666667)"><rect width="6" height="6"></rect></g>
<g transform="translate(905.66666666667,927.66666666667) scale(3.7766666666667)"><rect width="6" height="6"></rect></g>
<g transform="translate(927.66666666667,927.66666666667) scale(3.7766666666667)"><rect width="6" height="6"></rect></g>
</g><g><g transform="translate(135.66666666667,135.66666666667)" fill="#000000"><g transform="scale(11)"><path d="M0,0v14h14V0H0z M12,12H2V2h10V12z"></path></g></g>
<g transform="translate(795.66666666667,135.66666666667)" fill="#000000"><g transform="scale(11)"><path d="M0,0v14h14V0H0z M12,12H2V2h10V12z"></path></g></g>
<g transform="translate(135.66666666667,795.66666666667)" fill="#000000"><g transform="scale(11)"><path d="M0,0v14h14V0H0z M12,12H2V2h10V12z"></path></g></g>
<g transform="translate(179.66666666667,179.66666666667)" fill="#000000"><g transform="scale(11)"><rect width="6" height="6"></rect></g></g>
<g transform="translate(839.66666666667,179.66666666667)" fill="#000000"><g transform="scale(11)"><rect width="6" height="6"></rect></g></g>
<g transform="translate(179.66666666667,839.66666666667)" fill="#000000"><g transform="scale(11)"><rect width="6" height="6"></rect></g></g></g>
</svg> 